<?xml version="1.0" encoding="UTF-8"?><svg id="Layer_1" xmlns="http://www.w3.org/2000/svg" width="32" height="32" viewBox="0 0 32 32"><defs><style>.cls-1{fill:#fff;}</style></defs><path id="Group_14497" class="cls-1" d="M10.63,21.8h-2.51l-.77-2.22H3.3c-.08.25-.21.61-.4,1.11s-.32.87-.4,1.11H0l4.02-11.6h2.61s4,11.6,4,11.6ZM6.63,17.31l-1.31-3.73c-.14.41-.36,1.04-.65,1.87-.29.83-.5,1.45-.65,1.87h2.61,0ZM20.62,18.88c.01.42-.09.82-.31,1.18-.2.27-.42.52-.67.75-.23.24-.48.44-.76.62-.38.22-.8.35-1.23.37h-5.63v-11.6h5.63c.45-.01.89.11,1.28.35.53.39.99.87,1.37,1.41.23.36.35.77.33,1.2v5.72h0ZM18.26,18.8v-5.54c-.14-.33-.4-.61-.71-.79h-3.17v7.07h3.17c.3-.18.55-.43.71-.74M32,10.2l-3.69,11.6h-2.61l-3.7-11.6h2.49l2.51,8.29c.12-.35.26-.81.44-1.38s.46-1.47.83-2.68c.37-1.21.68-2.22.92-3.02.14-.4.25-.8.32-1.21h2.5Z"/></svg>