<svg width="602" height="364" viewBox="0 0 602 364" fill="none" xmlns="http://www.w3.org/2000/svg">
<g clip-path="url(#clip0_1147_76176)">
<path d="M349.332 289.969L359.565 315.254H388.418L399.741 289.969H349.332Z" fill="#0A081C"/>
<path d="M360.096 345.209L359.514 345.011C363.404 333.551 359.538 315.291 359.514 315.117L360.108 314.993C360.145 315.179 364.048 333.601 360.108 345.221L360.096 345.209Z" fill="#0A081C"/>
<path d="M387.82 345.209C383.868 333.589 387.77 315.167 387.82 314.981L388.414 315.105C388.377 315.291 384.512 333.552 388.414 344.999L387.832 345.197L387.82 345.209Z" fill="#0A081C"/>
<path d="M387.339 321.102H361.149V321.709H387.339V321.102Z" fill="#0A081C"/>
<path d="M373.514 322.39C373.514 323.022 373.006 323.529 372.374 323.529C371.742 323.529 371.234 323.022 371.234 322.39V320.457C371.234 319.825 371.742 319.317 372.374 319.317C373.006 319.317 373.514 319.825 373.514 320.457V322.39Z" fill="#0A081C"/>
<path d="M376.872 322.39C376.872 323.022 376.364 323.529 375.733 323.529C375.101 323.529 374.593 323.022 374.593 322.39V320.457C374.593 319.825 375.101 319.317 375.733 319.317C376.364 319.317 376.872 319.825 376.872 320.457V322.39Z" fill="#0A081C"/>
<path d="M374.233 363.072H374.852C383.413 363.072 390.35 356.135 390.35 347.574V337.688H358.735V347.574C358.735 356.135 365.672 363.072 374.233 363.072Z" fill="#0A081C"/>
<path d="M378.753 343.164C378.753 345.481 376.882 347.352 374.565 347.352C372.249 347.352 370.378 345.481 370.378 343.164C370.378 340.848 374.565 335.36 374.565 335.36C374.565 335.36 378.753 340.86 378.753 343.164Z" fill="#0A081C"/>
<path d="M364.37 343.164C364.37 345.481 362.5 347.352 360.183 347.352C357.866 347.352 355.996 345.481 355.996 343.164C355.996 340.848 360.183 335.36 360.183 335.36C360.183 335.36 364.37 340.86 364.37 343.164Z" fill="#0A081C"/>
<path d="M393.062 343.164C393.062 345.481 391.191 347.352 388.874 347.352C386.558 347.352 384.687 345.481 384.687 343.164C384.687 340.848 388.874 335.36 388.874 335.36C388.874 335.36 393.062 340.86 393.062 343.164Z" fill="#0A081C"/>
<path d="M393.148 335.893C393.148 337.367 391.959 338.556 390.485 338.556H358.572C357.098 338.556 355.909 337.367 355.909 335.893C355.909 334.419 357.098 333.229 358.572 333.229H390.485C391.959 333.229 393.148 334.419 393.148 335.893Z" fill="#0A081C"/>
<path d="M463.292 101.677C437.425 70.2107 386.286 67.2746 375.248 67.126C375.062 67.126 374.839 67.126 374.591 67.126C374.343 67.126 374.12 67.126 373.934 67.126C362.896 67.287 311.757 70.2107 285.89 101.677C217.58 184.767 332 268.364 349.381 289.969H399.727C417.108 268.364 531.602 184.767 463.292 101.677Z" fill="#0A081C"/>
<mask id="mask0_1147_76176" style="mask-type:luminance" maskUnits="userSpaceOnUse" x="264" y="67" width="221" height="223">
<path d="M463.292 101.677C437.425 70.2107 386.286 67.2746 375.248 67.126C375.062 67.126 374.839 67.126 374.591 67.126C374.343 67.126 374.12 67.126 373.934 67.126C362.896 67.287 311.757 70.2107 285.89 101.677C217.58 184.767 332 268.364 349.381 289.969H399.727C417.108 268.364 531.602 184.767 463.292 101.677Z" fill="white"/>
</mask>
<g mask="url(#mask0_1147_76176)">
<path d="M358.995 60.1507C358.995 60.1507 344.079 66.4936 337.898 84.4072C321.681 131.409 343.819 196.399 343.819 196.399L372.214 291.554C372.214 291.554 383.239 300.846 382.57 293.846C380.13 268.375 400.323 54.8113 400.323 54.8113L359.007 60.1507H358.995Z" fill="#0A081C"/>
<path d="M388.964 60.4102C388.964 60.4102 404.673 66.5053 410.855 84.4189C427.071 131.421 404.933 196.41 404.933 196.41L376.539 291.566C376.539 291.566 379.4 265.302 380.069 258.291C382.51 232.82 383.711 161.475 383.711 161.475L382.881 65.8115L388.964 60.4225V60.4102Z" fill="#0A081C"/>
</g>
<path d="M537.598 301.106L542.38 312.962H555.908L561.21 301.106H537.598Z" fill="#07568D"/>
<path d="M542.642 326.986L542.369 326.899C544.19 321.535 542.382 312.974 542.369 312.888L542.654 312.826C542.679 312.912 544.5 321.547 542.654 326.986H542.642Z" fill="#07568D"/>
<path d="M555.627 326.986C553.781 321.547 555.602 312.912 555.627 312.826L555.912 312.888C555.9 312.974 554.079 321.522 555.912 326.899L555.64 326.986H555.627Z" fill="#07568D"/>
<path d="M555.389 315.7H543.124V315.985H555.389V315.7Z" fill="#07568D"/>
<path d="M548.922 316.307C548.922 316.605 548.687 316.84 548.39 316.84C548.092 316.84 547.857 316.605 547.857 316.307V315.403C547.857 315.106 548.092 314.87 548.39 314.87C548.687 314.87 548.922 315.106 548.922 315.403V316.307Z" fill="#07568D"/>
<path d="M550.495 316.307C550.495 316.605 550.26 316.84 549.962 316.84C549.665 316.84 549.43 316.605 549.43 316.307V315.403C549.43 315.106 549.665 314.87 549.962 314.87C550.26 314.87 550.495 315.106 550.495 315.403V316.307Z" fill="#07568D"/>
<path d="M549.254 335.36H549.539C553.553 335.36 556.799 332.114 556.799 328.101V323.467H541.982V328.101C541.982 332.114 545.228 335.36 549.242 335.36H549.254Z" fill="#07568D"/>
<path d="M551.375 326.031C551.375 327.108 550.495 327.988 549.417 327.988C548.34 327.988 547.46 327.108 547.46 326.031C547.46 324.953 549.417 322.376 549.417 322.376C549.417 322.376 551.375 324.953 551.375 326.031Z" fill="#07568D"/>
<path d="M544.633 326.031C544.633 327.108 543.754 327.988 542.676 327.988C541.598 327.988 540.719 327.108 540.719 326.031C540.719 324.953 542.676 322.376 542.676 322.376C542.676 322.376 544.633 324.953 544.633 326.031Z" fill="#07568D"/>
<path d="M558.072 326.031C558.072 327.108 557.192 327.988 556.115 327.988C555.037 327.988 554.157 327.108 554.157 326.031C554.157 324.953 556.115 322.376 556.115 322.376C556.115 322.376 558.072 324.953 558.072 326.031Z" fill="#07568D"/>
<path d="M558.126 322.624C558.126 323.318 557.568 323.876 556.874 323.876H541.922C541.228 323.876 540.67 323.318 540.67 322.624C540.67 321.931 541.228 321.373 541.922 321.373H556.874C557.568 321.373 558.126 321.931 558.126 322.624Z" fill="#07568D"/>
<path d="M561.197 301.106C569.337 290.985 622.978 251.812 590.979 212.888C578.863 198.146 554.904 196.771 549.726 196.696C549.639 196.696 549.527 196.696 549.416 196.696C549.304 196.696 549.193 196.696 549.106 196.696C543.928 196.771 519.981 198.146 507.853 212.888C475.853 251.812 529.458 290.985 537.597 301.106H549.602" fill="#07568D"/>
<mask id="mask1_1147_76176" style="mask-type:luminance" maskUnits="userSpaceOnUse" x="497" y="196" width="105" height="106">
<path d="M561.197 301.106C569.337 290.985 622.978 251.812 590.979 212.888C578.863 198.146 554.904 196.771 549.726 196.696C549.639 196.696 549.527 196.696 549.416 196.696C549.304 196.696 549.193 196.696 549.106 196.696C543.928 196.771 519.981 198.146 507.853 212.888C475.853 251.812 529.458 290.985 537.597 301.106H549.602" fill="white"/>
</mask>
<g mask="url(#mask1_1147_76176)">
<path d="M542.12 193.45C542.12 193.45 535.132 196.423 532.234 204.81C524.639 226.837 535.009 257.275 535.009 257.275L548.314 301.849C548.314 301.849 553.48 306.21 553.17 302.927C552.03 290.997 561.483 190.935 561.483 190.935L542.12 193.438V193.45Z" fill="#07568D"/>
<path d="M556.157 193.562C556.157 193.562 563.516 196.423 566.415 204.81C574.009 226.837 563.64 257.275 563.64 257.275L550.334 301.849C550.334 301.849 551.672 289.547 551.995 286.264C553.134 274.334 553.704 240.91 553.704 240.91L553.32 196.089L556.169 193.562H556.157Z" fill="#07568D"/>
</g>
</g>
<path d="M159.698 141.242L153.242 157.196H135.037L127.893 141.242H159.698Z" fill="#388ECB"/>
<path d="M152.904 176.096L153.271 175.971C150.817 168.74 153.256 157.219 153.271 157.109L152.896 157.031C152.873 157.148 150.411 168.772 152.896 176.104L152.904 176.096Z" fill="#388ECB"/>
<path d="M135.413 176.097C137.906 168.765 135.444 157.142 135.413 157.024L135.037 157.103C135.061 157.22 137.5 168.741 135.037 175.964L135.405 176.089L135.413 176.097Z" fill="#388ECB"/>
<path d="M135.717 160.886H152.241V161.269H135.717V160.886Z" fill="#388ECB"/>
<path d="M144.439 161.698C144.439 162.097 144.76 162.417 145.158 162.417C145.557 162.417 145.877 162.097 145.877 161.698V160.479C145.877 160.08 145.557 159.76 145.158 159.76C144.76 159.76 144.439 160.08 144.439 160.479V161.698Z" fill="#388ECB"/>
<path d="M142.32 161.698C142.32 162.097 142.64 162.417 143.039 162.417C143.437 162.417 143.758 162.097 143.758 161.698V160.479C143.758 160.08 143.437 159.76 143.039 159.76C142.64 159.76 142.32 160.08 142.32 160.479V161.698Z" fill="#388ECB"/>
<path d="M143.987 187.367H143.596C138.195 187.367 133.817 182.99 133.817 177.589V171.351H153.765V177.589C153.765 182.99 149.388 187.367 143.987 187.367Z" fill="#388ECB"/>
<path d="M141.135 174.805C141.135 176.267 142.316 177.447 143.777 177.447C145.239 177.447 146.419 176.267 146.419 174.805C146.419 173.343 143.777 169.881 143.777 169.881C143.777 169.881 141.135 173.351 141.135 174.805Z" fill="#388ECB"/>
<path d="M150.209 174.805C150.209 176.267 151.389 177.447 152.851 177.447C154.312 177.447 155.493 176.267 155.493 174.805C155.493 173.343 152.851 169.881 152.851 169.881C152.851 169.881 150.209 173.351 150.209 174.805Z" fill="#388ECB"/>
<path d="M132.105 174.805C132.105 176.267 133.285 177.447 134.747 177.447C136.209 177.447 137.389 176.267 137.389 174.805C137.389 173.343 134.747 169.881 134.747 169.881C134.747 169.881 132.105 173.351 132.105 174.805Z" fill="#388ECB"/>
<path d="M132.049 170.217C132.049 171.148 132.8 171.898 133.73 171.898H153.865C154.796 171.898 155.546 171.148 155.546 170.217C155.546 169.287 154.796 168.537 153.865 168.537H133.73C132.8 168.537 132.049 169.287 132.049 170.217Z" fill="#388ECB"/>
<path d="M87.7905 22.4397C104.111 2.58572 136.378 0.733202 143.342 0.639404C143.46 0.639404 143.6 0.639404 143.757 0.639404C143.913 0.639404 144.054 0.639404 144.171 0.639404C151.136 0.741019 183.402 2.58572 199.723 22.4397C242.823 74.865 170.63 127.611 159.663 141.243H127.897C116.93 127.611 44.6902 74.865 87.7905 22.4397Z" fill="#388ECB"/>
<mask id="mask2_1147_76176" style="mask-type:luminance" maskUnits="userSpaceOnUse" x="74" y="0" width="140" height="142">
<path d="M87.7905 22.4406C104.111 2.5867 136.378 0.734179 143.342 0.640381C143.46 0.640381 143.6 0.640381 143.757 0.640381C143.913 0.640381 144.054 0.640381 144.171 0.640381C151.136 0.741996 183.402 2.5867 199.723 22.4406C242.823 74.866 170.63 127.612 159.663 141.244H127.897C116.93 127.612 44.6902 74.866 87.7905 22.4406Z" fill="white"/>
</mask>
<g mask="url(#mask2_1147_76176)">
<path d="M153.596 -3.76121C153.596 -3.76121 163.007 0.240847 166.907 11.5435C177.139 41.1994 163.171 82.2048 163.171 82.2048L145.255 142.244C145.255 142.244 138.299 148.106 138.721 143.69C140.261 127.619 127.52 -7.13013 127.52 -7.13013L153.588 -3.76121H153.596Z" fill="#388ECB"/>
<path d="M134.688 -3.5979C134.688 -3.5979 124.777 0.247825 120.876 11.5505C110.644 41.2064 124.612 82.2118 124.612 82.2118L142.528 142.25C142.528 142.25 140.722 125.679 140.3 121.255C138.76 105.185 138.002 60.1692 138.002 60.1692L138.526 -0.189899L134.688 -3.59008V-3.5979Z" fill="#388ECB"/>
</g>
<path d="M40.9082 235.902L37.891 243.383H29.3554L26.0099 235.902H40.9082Z" fill="#53A9E5"/>
<path d="M37.7265 252.231L37.8984 252.176C36.7494 248.792 37.8906 243.39 37.8984 243.336L37.7187 243.297C37.703 243.351 36.554 248.799 37.7187 252.231H37.7265Z" fill="#53A9E5"/>
<path d="M29.5375 252.231C30.7021 248.799 29.5531 243.351 29.5375 243.297L29.3577 243.336C29.3655 243.39 30.5145 248.784 29.3577 252.176L29.5297 252.231H29.5375Z" fill="#53A9E5"/>
<path d="M29.686 245.11H37.4243V245.29H29.686V245.11Z" fill="#53A9E5"/>
<path d="M33.7614 245.493C33.7614 245.681 33.9099 245.829 34.0975 245.829C34.2851 245.829 34.4336 245.681 34.4336 245.493V244.923C34.4336 244.735 34.2851 244.587 34.0975 244.587C33.9099 244.587 33.7614 244.735 33.7614 244.923V245.493Z" fill="#53A9E5"/>
<path d="M32.7741 245.493C32.7741 245.681 32.9226 245.829 33.1102 245.829C33.2978 245.829 33.4463 245.681 33.4463 245.493V244.923C33.4463 244.735 33.2978 244.587 33.1102 244.587C32.9226 244.587 32.7741 244.735 32.7741 244.923V245.493Z" fill="#53A9E5"/>
<path d="M33.5518 257.516H33.3721C30.8395 257.516 28.7916 255.468 28.7916 252.936V250.012H38.1401V252.936C38.1401 255.468 36.0922 257.516 33.5597 257.516H33.5518Z" fill="#53A9E5"/>
<path d="M32.215 251.63C32.215 252.31 32.77 252.865 33.45 252.865C34.1301 252.865 34.6851 252.31 34.6851 251.63C34.6851 250.95 33.45 249.324 33.45 249.324C33.45 249.324 32.215 250.95 32.215 251.63Z" fill="#53A9E5"/>
<path d="M36.4689 251.63C36.4689 252.31 37.0239 252.865 37.704 252.865C38.384 252.865 38.939 252.31 38.939 251.63C38.939 250.95 37.704 249.324 37.704 249.324C37.704 249.324 36.4689 250.95 36.4689 251.63Z" fill="#53A9E5"/>
<path d="M27.9904 251.63C27.9904 252.31 28.5454 252.865 29.2254 252.865C29.9055 252.865 30.4604 252.31 30.4604 251.63C30.4604 250.95 29.2254 249.324 29.2254 249.324C29.2254 249.324 27.9904 250.95 27.9904 251.63Z" fill="#53A9E5"/>
<path d="M27.9543 249.481C27.9543 249.918 28.306 250.27 28.7438 250.27H38.1783C38.616 250.27 38.9678 249.918 38.9678 249.481C38.9678 249.043 38.616 248.691 38.1783 248.691H28.7438C28.306 248.691 27.9543 249.043 27.9543 249.481Z" fill="#53A9E5"/>
<path d="M26.0182 235.902C20.8828 229.516 -12.9627 204.8 7.22733 180.24C14.8719 170.939 29.989 170.071 33.2563 170.024C33.311 170.024 33.3814 170.024 33.4517 170.024C33.5221 170.024 33.5924 170.024 33.6472 170.024C36.9145 170.071 52.0238 170.939 59.6762 180.24C79.8662 204.8 46.0441 229.516 40.9087 235.902H33.3345" fill="#53A9E5"/>
<mask id="mask3_1147_76176" style="mask-type:luminance" maskUnits="userSpaceOnUse" x="0" y="170" width="67" height="66">
<path d="M26.0182 235.901C20.8828 229.515 -12.9627 204.799 7.22733 180.24C14.8719 170.938 29.989 170.07 33.2563 170.023C33.311 170.023 33.3814 170.023 33.4517 170.023C33.5221 170.023 33.5924 170.023 33.6472 170.023C36.9145 170.07 52.0238 170.938 59.6762 180.24C79.8662 204.799 46.0441 229.515 40.9087 235.901H33.3345" fill="white"/>
</mask>
<g mask="url(#mask3_1147_76176)">
<path d="M38.0559 167.976C38.0559 167.976 42.4644 169.852 44.2935 175.144C49.085 189.042 42.5426 208.247 42.5426 208.247L34.1477 236.371C34.1477 236.371 30.8882 239.122 31.0836 237.051C31.8027 229.523 25.8387 166.389 25.8387 166.389L38.0559 167.968V167.976Z" fill="#53A9E5"/>
<path d="M29.2017 168.047C29.2017 168.047 24.5587 169.852 22.7297 175.144C17.9381 189.042 24.4806 208.247 24.4806 208.247L32.8755 236.371C32.8755 236.371 32.0313 228.609 31.8281 226.538C31.109 219.011 30.7494 197.922 30.7494 197.922L30.9917 169.641L29.1939 168.047H29.2017Z" fill="#53A9E5"/>
</g>
<defs>
<clipPath id="clip0_1147_76176">
<rect width="336.73" height="308.261" fill="white" transform="translate(264.346 54.8113)"/>
</clipPath>
</defs>
</svg>
