<svg width="779" height="255" viewBox="0 0 779 255" fill="none" xmlns="http://www.w3.org/2000/svg">
<g clip-path="url(#clip0_1738_9018)">
<path d="M300.491 150.838C301.253 150.702 302.547 150.078 303.582 150.37C305.487 150.907 308.153 151.497 308.91 152.91C314.702 163.776 324.64 165.873 335.58 166.131C336.483 166.15 337.421 166.141 338.295 165.951C342.27 165.083 345.894 165.478 348.946 168.5C349.308 168.856 350.074 169.002 350.621 168.944C352.296 168.768 354.182 165.575 353.625 163.026C353.405 162.031 351.691 160.778 350.558 160.671C347.242 160.349 343.931 160.637 341.43 157.653C340.297 156.303 340.366 155.499 341.137 154.007C343.345 149.751 345.85 145.505 347.105 140.942C348.136 137.203 347.598 133.021 347.667 129.038C347.73 125.401 347.681 121.765 347.681 117.689C346.793 118.352 346.211 118.781 345.367 119.415C345.694 117.523 345.982 115.847 346.378 113.536C345.22 114.404 344.575 114.886 343.74 115.515C343.921 113.858 344.068 112.483 344.287 110.47C343.296 111.508 342.725 112.103 341.904 112.956V109.07C340.361 111.722 339.233 113.663 338.105 115.598C337.987 115.544 337.865 115.491 337.748 115.437C338.08 113.443 338.412 111.449 338.744 109.456C338.559 109.407 338.373 109.358 338.188 109.314C337.885 110.123 337.597 110.933 337.279 111.737C335.482 116.324 333.597 120.873 331.907 125.499C330.432 129.545 329.163 133.669 327.839 137.769C327.532 138.724 327.453 139.753 327.146 140.704C324.972 147.465 321.783 148.888 315.22 146.119C313.735 145.491 312.212 144.525 310.698 144.516C308.705 144.501 306.385 144.789 304.803 145.842C302.972 147.06 301.8 149.254 300.491 150.838Z" fill="#1C080E"/>
<path d="M518.536 168.495C516.607 178.338 509.535 186.162 508.256 196.306C507.997 198.344 506.688 200.392 505.443 202.137C503.675 204.608 501.096 205.232 498.176 204.16C497.233 203.814 496.271 203.502 495.299 203.229C491.407 202.127 489.39 202.868 486.978 206.129C486.167 207.231 485.185 208.206 484.296 209.542C488.54 207.762 490.987 209.298 493.536 212.798C497.653 218.453 504.217 219.662 510.795 219.945C513.686 220.067 516.655 219.706 519.503 219.135C522.379 218.56 524.928 218.248 527.531 220.188C528.308 220.769 530.877 220.437 531.253 219.764C532.107 218.234 532.347 216.22 532.303 214.421C532.293 213.958 530.305 213.188 529.221 213.178C526.652 213.154 524.049 214.085 521.822 211.813C520.518 210.478 520.245 209.371 521.5 207.938C526.061 202.746 527.79 196.38 528.606 189.774C528.913 187.283 528.132 184.68 528.049 182.116C528.005 180.751 528.386 179.376 528.625 177.631C527.849 177.948 527.37 178.147 526.779 178.386C526.999 176.909 527.219 175.461 527.434 174.014C527.233 173.862 527.028 173.711 526.828 173.565C526.218 174.491 525.602 175.422 524.992 176.349C524.831 176.232 524.67 176.115 524.508 175.993C524.85 174.282 525.192 172.575 525.705 170.036C524.21 171.279 523.419 171.932 522.428 172.756C522.594 171.24 522.731 169.972 522.867 168.7C522.736 168.627 522.599 168.554 522.467 168.485C521.29 170.357 520.113 172.229 518.941 174.106L518.584 173.975C518.892 172.229 519.2 170.484 519.512 168.739C519.19 168.656 518.863 168.573 518.541 168.49L518.536 168.495Z" fill="#1C080E"/>
<path d="M422.626 191.027C423.016 191.919 423.363 192.704 423.808 193.723C419.715 194.6 415.818 195.439 411.921 196.272C411.926 196.443 411.935 196.609 411.94 196.779C414.665 196.779 417.498 197.252 420.096 196.677C424.74 195.643 428.271 198.047 432.037 199.748C433.927 200.601 435.577 201.995 437.33 203.141C434.127 210.98 430.161 213.383 423.519 209.371C419.725 207.08 417.434 207.831 412.712 212.847C417.049 211.531 418.592 213.983 420.35 216.81C424.418 223.362 431.182 224.751 438.224 225.034C441.423 225.161 444.329 224.902 447.303 227.101C449.994 229.095 450.902 225.57 452.631 223.986C449.881 222.865 447.449 222.016 445.154 220.886C443.22 219.935 442.532 218.516 444.295 216.615C445.594 215.216 446.59 213.52 447.957 212.198C452.24 208.05 452.406 202.497 453.232 197.194C453.529 195.288 453.28 193.303 453.28 191.48C452.616 190.681 451.849 189.75 450.907 188.609C451.005 188.536 450.668 188.794 450.13 189.204V186.547C449.105 187.858 448.367 188.794 447.376 190.067C447.601 188.687 447.752 187.751 447.913 186.761C447.537 186.761 447.22 186.722 447.21 186.766C445.862 191.909 441.643 193.147 437.208 193.903C436.158 194.083 434.854 193.674 433.863 193.157C430.371 191.334 426.748 190.491 422.636 191.027H422.626Z" fill="#1C080E"/>
<path d="M79.2859 121.516C77.0443 121.302 75.125 121.297 73.2937 120.907C70.4025 120.288 69.9581 118.625 71.9653 116.485C73.4793 114.867 74.9346 113.185 76.5706 111.693C81.4006 107.281 82.3382 101.417 82.8119 95.377C82.9486 93.6025 82.8314 91.8134 82.8314 89.6977C80.3115 90.4826 80.2577 89.1469 81.1759 86.6899C79.5057 88.1427 78.5387 88.9811 77.4008 89.9707C77.5766 89.0201 77.7378 88.1622 77.982 86.8362C74.3779 91.9353 71.0716 96.6981 67.6775 101.397C65.6801 104.162 63.7315 106.999 61.4215 109.485C58.3986 112.736 57.163 112.775 53.1926 110.704C50.8192 109.46 48.4115 108.193 45.8476 110.021C44.5583 110.942 43.5376 112.229 42.2532 113.746C46.3506 112.502 48.1136 114.93 49.9401 117.733C52.504 121.667 56.4598 123.671 61.0602 124.246C63.9562 124.607 66.901 124.563 69.8067 124.875C71.0374 125.006 72.3512 125.387 73.3914 126.03C76.6048 128.014 77.9576 127.468 78.6901 123.695C78.8024 123.12 79.0027 122.564 79.2957 121.516H79.2859Z" fill="#1C080E"/>
<path d="M274.011 148.211C274.153 148.659 274.353 149.274 274.612 150.083H272.258C272.297 150.458 272.258 150.673 272.346 150.809C273.816 153.057 275.057 155.514 276.864 157.449C278.05 158.716 279.965 159.569 281.708 160.008C287.471 161.456 292.179 164.571 296.437 168.529C294.576 171.445 293.058 171.932 289.61 170.772C284.301 168.983 283.369 169.227 279.105 174.014C283.383 172.863 284.892 175.647 286.968 177.943C291.92 183.422 298.562 183.461 305.228 182.754C307.464 182.515 309.643 181.521 310.36 184.865C310.453 185.299 311.762 185.938 312.226 185.757C315.356 184.529 318.404 183.11 321.48 181.75C321.427 181.341 321.373 180.926 321.319 180.517C316.807 178.991 312.294 177.47 308.09 176.046C308.09 175.081 308.353 174.253 308.05 173.872C302.776 167.208 297.204 160.978 289.229 157.195C283.92 154.675 279.051 151.228 274.011 148.216V148.211Z" fill="#1C080E"/>
<path d="M513.217 173.019C511.767 172.712 510.272 172.527 508.876 172.064C506.805 171.381 505.628 170.26 506.908 167.808C508.7 164.386 509.061 160.89 507.674 157.059C506.668 154.275 506.712 151.136 505.926 148.25C505.389 146.285 504.231 144.486 503.147 142.181C502.317 143.136 501.921 143.594 501.438 144.15C501.301 143.609 501.155 143.034 500.979 142.337C499.997 144.472 499.299 146.588 498.132 148.401C495.763 152.082 494.806 155.567 496.662 159.979C498.415 164.152 495.065 167.379 490.699 166.18C487.773 165.375 485.595 166.107 484.311 168.159C485.869 169.378 487.544 170.304 488.692 171.674C491.129 174.584 494.425 175.481 497.844 175.632C502.336 175.837 506.854 175.569 511.352 175.32C512.114 175.276 512.822 174.321 513.559 173.789C513.447 173.531 513.33 173.273 513.217 173.014V173.019Z" fill="#1C080E"/>
<path d="M523.483 87.6893C516.895 86.5096 517.139 86.6412 520.396 80.6158C521.905 77.8225 522.779 74.4247 522.965 71.2463C523.155 67.9655 522.286 64.5872 521.602 61.3065C521.412 60.3997 520.24 59.6929 519.419 58.7813C518.799 59.2785 518.106 59.8342 517.305 60.4728C517.378 59.7562 517.437 59.1566 517.5 58.557C517.324 58.5083 517.149 58.4644 516.973 58.4156C515.176 63.3637 513.383 68.3117 511.576 73.2597C511.098 74.5759 510.741 75.975 510.058 77.1791C507.367 81.9272 506.869 82.0637 501.663 80.1625C498.161 78.8804 496.725 79.4312 495.089 82.2733C496.72 83.5066 498.483 84.4865 499.782 85.8905C503.977 90.4338 509.247 91.2577 515.019 90.7702C516.489 90.6483 518.067 90.4875 519.449 90.8726C522.574 91.7354 523.38 91.2138 523.483 87.6795V87.6893Z" fill="#1C080E"/>
<path d="M666.154 0C664.762 2.82255 663.497 5.65486 661.993 8.35067C660.581 10.8905 660.196 13.3718 661.182 16.1602C661.597 17.3351 661.773 18.7537 661.553 19.9675C660.865 23.7797 659.512 24.6669 655.893 23.3409C652.514 22.1027 650.013 22.7657 648.499 25.1544C649.999 26.2317 651.801 27.0361 652.899 28.4059C656.782 33.2369 662.061 33.3198 667.482 33.1345C669.87 33.0517 672.253 32.7884 674.637 32.8372C676.668 32.8762 677.435 32.1352 677.02 29.9951C676.356 29.883 675.691 29.7416 675.013 29.6539C670.7 29.1079 670.09 27.9964 671.76 24.038C672.996 21.1131 673.411 18.1638 672.541 14.9415C671.736 11.9581 671.399 8.8284 671.106 5.74261C670.725 1.73546 669.592 0.321742 666.149 0.00487488L666.154 0Z" fill="#1C080E"/>
<path d="M745.23 55.3055C743.105 59.3078 741.87 62.6374 742.197 66.3715C742.47 69.4768 742.954 72.5724 743.086 75.6777C743.115 76.4235 742.265 77.6179 741.543 77.9006C740.073 78.4758 738.417 78.7927 736.83 78.8171C733.748 78.8658 731.946 80.3283 730.994 83.5603C734.427 82.0004 737.211 83.5018 740.239 84.5499C743.091 85.5395 746.285 85.52 749.317 85.9978C750.362 86.1586 751.373 86.5194 752.414 86.6998C753.234 86.8411 754.172 87.0849 754.87 86.807C755.202 86.6754 755.334 85.3738 755.148 84.7108C752.682 75.8629 750.177 67.0296 747.569 58.2207C747.3 57.3091 746.304 56.612 745.23 55.3055Z" fill="#1C080E"/>
<path d="M512.558 125.533C513.51 126.211 514.463 126.888 515.781 127.829C509.828 131.159 503.411 131.802 497.272 133.474C502.014 134.274 506.849 134.098 511.171 132.314C517.569 129.677 523.786 132.358 527.253 137.954C528.225 139.519 528.948 142.654 531.595 141.401C532.596 140.928 532.625 137.94 532.674 136.092C532.718 134.459 532.176 132.811 531.805 130.656C538.803 128.746 546.197 126.727 553.591 124.709C553.561 124.5 553.527 124.295 553.498 124.085C547.408 124.499 541.152 124.183 535.272 125.528C529.504 126.849 524.45 125.957 519.107 124.285C517.129 123.666 514.79 124.202 512.612 124.212C512.592 124.651 512.578 125.084 512.558 125.523V125.533Z" fill="#1C080E"/>
<path d="M424.882 139.938C423.754 139.631 422.601 139.397 421.503 139.002C419.613 138.325 419.403 137.208 420.965 135.941C422.372 134.805 423.754 133.523 425.366 132.767C429.707 130.735 429.805 126.654 430.401 122.847C430.488 122.277 429.541 121.038 428.965 120.965C427.744 120.814 426.122 120.809 425.243 121.487C421.673 124.256 418.289 127.268 414.9 130.262C412.756 132.153 410.773 132.509 408.121 130.92C404.551 128.785 403.306 129.214 400.942 131.934C402.324 133.148 403.57 134.517 405.064 135.502C407.775 137.286 410.49 139.222 413.484 140.372C416.121 141.386 419.129 141.542 422.001 141.791C422.977 141.874 424.032 141.089 425.048 140.699C424.994 140.445 424.936 140.187 424.882 139.933V139.938Z" fill="#1C080E"/>
<path d="M246.605 159.808C243.762 160.388 241.13 160.886 238.522 161.466C235.67 162.104 232.818 162.753 230 163.518C226.333 164.517 223.06 164.474 219.784 161.914C217 159.74 214.641 160.574 212.224 163.274C213.703 164.522 215.457 165.527 216.56 167.013C220.233 171.937 225.668 174.179 230.879 176.768C231.407 177.031 232.315 176.534 233.018 176.393C232.979 175.891 233.038 175.618 232.935 175.525C228.809 171.684 229.038 170.928 234.444 169.032C237.472 167.969 240.441 166.697 243.303 165.249C245.139 164.322 247.068 163.138 246.6 159.813L246.605 159.808Z" fill="#1C080E"/>
<path d="M640.69 93.0225C638.361 92.3887 636.867 91.9841 634.869 91.4381C638.175 86.7973 638.18 82.1612 637.111 77.2815C636.432 74.1762 635.455 71.7924 631.299 72.0605C630.454 75.6338 629.409 79.3777 628.701 83.1801C627.934 87.2994 626.796 88.2695 622.636 87.4797C620.199 87.0166 618.519 87.7869 617.684 89.8733C618.856 90.429 620.267 90.6923 621.053 91.5405C623.842 94.5434 627.358 95.2942 631.192 95.3137C633.56 95.3234 635.948 95.4453 638.293 95.1869C639.045 95.104 639.684 93.9682 640.69 93.0225Z" fill="#1C080E"/>
<path d="M-6.1534e-05 103.494C1.27457 104.517 2.60292 105.288 3.53569 106.389C6.17774 109.524 9.68912 110.358 13.5179 110.611C15.2028 110.723 16.8876 111.211 18.5529 111.128C19.6127 111.074 20.6333 110.294 22.4549 109.495C20.0766 108.573 18.6701 108.027 16.6092 107.228C18.1818 105.536 19.2952 104.186 20.565 103.001C24.2619 99.545 24.467 95.2649 23.2998 90.8239C23.0361 89.8148 21.5856 88.9617 20.4917 88.4303C20.2036 88.2938 19.0266 89.532 18.5529 90.3218C16.6287 93.5051 14.9048 96.8102 12.9465 99.9692C10.6951 103.596 9.71351 103.889 5.86031 102.134C3.21338 100.925 1.22086 101.315 0.00971529 103.499L-6.1534e-05 103.494Z" fill="#1C080E"/>
<path d="M120.045 182.633C121.432 183.856 122.584 185.08 123.937 186.011C126.193 187.561 128.44 189.277 130.95 190.257C133.406 191.212 136.18 191.407 138.837 191.768C139.482 191.856 140.219 191.266 140.937 190.978C140.747 190.544 140.722 190.315 140.61 190.252C136.664 188.156 136.498 187.527 140.204 185.128C143.936 182.711 146.89 179.922 147.154 175.257C147.222 174.048 146.968 172.342 146.177 171.688C145.044 170.752 143.652 171.172 142.344 172.488C139.369 175.486 136.024 178.109 132.943 180.999C131.004 182.823 129.167 183.315 126.809 181.726C124.113 179.903 121.73 180.546 120.055 182.642L120.045 182.633Z" fill="#1C080E"/>
<path d="M695.49 108.637C688.277 109.924 681.039 111.098 673.86 112.561C671.531 113.034 669.553 113.404 667.204 112.293C664.474 111.001 661.407 110.786 658.252 112.166C658.657 112.975 658.98 113.614 659.575 114.794C653.652 116.67 647.943 118.479 642.229 120.288C642.258 120.517 642.287 120.741 642.312 120.97C646.536 120.249 651.034 120.205 654.921 118.65C661.304 116.095 665.836 118.63 670.202 122.559C671.443 123.676 672.288 125.231 673.528 126.869C676.326 123.144 673.963 120.283 674.075 116.831C681.205 114.457 688.477 112.03 695.753 109.607C695.666 109.285 695.573 108.958 695.485 108.637H695.49Z" fill="#1C080E"/>
<path d="M187.439 154.002C183.307 149.493 179.122 150.088 169.291 156.103C163.641 150.414 155.705 150.434 148.043 147.509C151.202 154.938 158.435 155.192 163.612 158.799C162.542 159.467 161.502 160.115 160.442 160.783C161.658 163.299 163.866 163.84 165.829 162.801C169.565 160.822 171.909 162.402 174.16 165.097C174.639 165.668 175.284 166.097 176.329 166.224C175.313 164.805 174.253 163.416 173.296 161.953C171.758 159.608 172.358 158.287 174.966 157.59C179.01 156.508 183.014 155.279 187.439 153.997V154.002Z" fill="#1C080E"/>
<path d="M374.409 187.171C370.967 190.7 367.865 193.849 364.794 197.028C362.664 199.236 360.555 199.675 357.971 197.589C355.705 195.76 353.376 195.751 351.735 198.042C352.956 199.304 353.962 200.645 355.246 201.615C357.517 203.331 359.827 205.096 362.371 206.319C364.393 207.29 366.771 207.582 369.028 207.962C369.716 208.079 370.527 207.504 371.65 207.119C370.019 205.842 368.827 204.906 367.187 203.619C369.062 202.327 370.415 201.137 371.977 200.372C376.246 198.281 376.905 194.23 377.393 190.276C377.501 189.428 375.572 188.326 374.409 187.171Z" fill="#1C080E"/>
<path d="M440.949 167.067C448.099 165.946 452.484 169.012 455.805 174.448C457.646 177.455 459.141 180.907 463.189 182.793C462.515 179.01 461.924 175.691 461.319 172.283C463.599 174.155 465.836 175.988 468.381 178.074C468.595 172.707 465.25 167.608 460.586 165.429C453.935 162.324 447.488 161.797 440.954 167.067H440.949Z" fill="#1C080E"/>
<path d="M380.207 221.032C381.208 221.646 382.453 221.978 382.883 222.758C384.773 226.165 387.903 227.238 391.415 227.72C393.134 227.954 394.862 228.13 396.596 228.193C396.928 228.208 397.285 227.593 397.729 227.174C396.782 226.345 395.991 225.653 394.911 224.708C395.947 223.923 396.728 223.157 397.656 222.655C401.372 220.632 402.588 217.22 402.857 213.349C402.911 212.554 402.329 211.107 401.831 211.004C400.845 210.809 399.38 210.999 398.696 211.643C396.279 213.924 394.091 216.445 391.854 218.911C390.179 220.759 388.494 221.549 386.091 219.945C383.991 218.546 381.882 218.78 380.211 221.032H380.207Z" fill="#1C080E"/>
<path d="M595.336 136.087C594.667 132.875 593.993 129.667 593.236 126.03C595.521 125.119 597.875 124.027 600.327 123.251C602.7 122.506 605.181 122.086 607.56 121.15C602.627 120.702 597.783 120.478 592.972 122.213C591.487 122.749 589.578 122.316 587.908 122.057C586.13 121.779 584.421 121.077 582.643 120.77C581.803 120.624 580.714 120.712 580.026 121.141C577.52 122.701 575.132 124.451 572.905 125.986C575.835 125.596 579.249 124.402 582.37 126.683C584.274 128.073 586.286 129.34 588.064 130.881C590.208 132.738 592.147 134.829 594.173 136.823C594.564 136.579 594.955 136.336 595.346 136.092L595.336 136.087Z" fill="#1C080E"/>
<path d="M753.957 69.2867C756.276 69.5597 759.07 69.2623 761.189 70.3153C763.47 71.4462 765.262 73.7228 766.996 75.7264C769.023 78.0663 770.756 80.6549 772.612 83.1362C772.944 82.9363 773.276 82.7365 773.608 82.5366C773.003 79.3338 772.392 76.1261 771.767 72.8161C774.16 74.8538 776.412 76.7647 779 78.9682C778.575 66.5324 765.961 62.1206 753.957 69.2818V69.2867Z" fill="#1C080E"/>
<path d="M607.403 174.418C605.909 173.707 605.03 173.282 603.526 172.566C604.918 171.279 605.909 170.036 607.189 169.251C610.466 167.233 611.501 164.059 611.984 160.598C612.082 159.886 611.589 158.57 611.1 158.424C610.241 158.161 608.839 158.239 608.248 158.789C605.538 161.344 603.023 164.108 600.449 166.809C598.789 168.549 597.084 168.963 594.804 167.696C592.186 166.243 591.766 166.501 589.617 168.861C590.789 169.894 591.834 171.098 593.133 171.898C595.067 173.087 597.109 174.16 599.228 174.959C600.859 175.574 602.676 175.89 604.424 175.944C605.279 175.968 606.163 175.096 607.408 174.423L607.403 174.418Z" fill="#1C080E"/>
<path d="M194.286 208.62C200.859 207.47 205.636 209.937 210.7 212.072C214.944 213.861 219.818 214.202 224.438 215.036C227.192 215.528 230 215.728 233.565 216.152C228.848 212.472 224.789 209.283 219.432 207.709C211.809 205.466 204.288 207.543 196.733 207.397C196.337 207.387 195.932 207.504 195.546 207.616C195.38 207.665 195.253 207.84 194.281 208.625L194.286 208.62Z" fill="#1C080E"/>
<path d="M288.462 204.418C285.508 201.571 282.978 201.201 280.258 203.024C278.504 204.194 276.776 205.398 275.027 206.592C270.627 204.55 266.207 202.751 261.358 206.28C265.006 207.933 268.483 209.513 272.571 211.365C271.179 212.437 270.373 213.052 268.972 214.129C270.549 214.129 271.853 214.539 272.522 214.056C275.315 212.047 277.606 213.1 279.926 214.802C280.321 215.089 280.78 215.294 281.571 215.279C280.907 214.285 280.199 213.32 279.593 212.296C278.114 209.776 278.705 208.177 281.42 207.138C283.72 206.261 286.015 205.364 288.462 204.418Z" fill="#1C080E"/>
<path d="M587.976 145.427C586.824 146.207 586.018 146.753 584.308 147.909C586.443 148.065 587.981 148.64 589.075 148.177C592.635 146.661 595.267 147.558 597.514 150.478C597.988 151.092 598.705 151.516 599.804 151.648C598.593 149.917 597.436 148.148 596.161 146.466C594.686 144.516 595.238 143.282 597.45 142.746C599.853 142.161 602.305 141.757 604.991 141.225C603.428 138.593 601.225 138.291 598.769 139.022C592.674 140.85 592.22 140.879 586.189 139.68C583.649 139.173 581.071 138.837 578.106 138.359C579.913 143.053 584.514 143.034 587.981 145.427H587.976Z" fill="#1C080E"/>
<path d="M471.384 244.407C465.465 239.581 461.783 244.383 457.412 246.357C453.359 244.407 449.056 242.896 443.533 245.255C447.103 246.708 450.057 247.907 453.764 249.413C452.543 250.198 451.718 250.725 450.868 251.266C452.382 253.503 454.091 254.176 455.971 252.397C457.661 250.798 458.862 251.163 460.259 252.684C461.133 253.64 462.237 254.386 463.619 255C462.95 253.908 462.252 252.836 461.617 251.724C459.893 248.721 460.308 247.693 463.585 246.718C465.993 246.001 468.4 245.289 471.379 244.407H471.384Z" fill="#1C080E"/>
<path d="M302.288 234.76C298.161 230.616 296.178 232.117 289.854 236.081C286.333 231.089 281.117 230.314 275.652 230.221C275.486 230.533 275.32 230.85 275.154 231.162C278.773 233.336 282.392 235.51 286.479 237.967C285.21 238.581 284.233 239.059 283.212 239.556C284.575 241.609 286.079 242.491 288.467 240.843C289.058 240.434 290.523 240.697 291.226 241.18C292.223 241.867 292.887 243.042 293.873 243.822C292.49 239.685 293.948 237.09 298.249 236.037C299.582 235.705 300.876 235.213 302.288 234.76Z" fill="#1C080E"/>
<path d="M192.445 178.635C185.437 173.638 180.182 173.263 175.64 176.836C172.334 174.764 168.833 173.302 164.838 175.12C167.543 176.363 170.132 177.553 173.16 178.942C172.031 180.01 171.367 180.639 170.161 181.784C171.538 182.433 173.003 183.612 173.516 183.291C176.354 181.501 177.985 183.417 179.85 184.875C180.075 185.055 180.383 185.133 181.017 185.431C180.617 184.456 180.295 183.793 180.065 183.1C179.064 180.088 180.006 178.713 183.195 178.65C186.277 178.591 189.363 178.635 192.45 178.635H192.445Z" fill="#1C080E"/>
<path d="M54.6675 229.816C54.0473 228.744 53.8519 228.334 53.598 227.969C51.0683 224.371 51.371 223.552 55.7272 222.587C57.1679 222.27 58.6526 222.158 60.147 221.943C58.9993 218.356 55.6687 218.97 49.0855 222.499C45.1639 218.741 40.0947 219.048 35.2111 218.619C35.0938 218.887 34.9718 219.16 34.8546 219.428C38.1608 221.129 41.4719 222.831 45.0321 224.659C43.8893 225.4 42.9224 226.029 41.9554 226.657C41.9407 226.945 41.9212 227.233 41.9065 227.52C43.2983 227.613 44.993 228.252 46.0332 227.691C48.7632 226.219 50.8827 226.253 52.8068 228.807C53.051 229.129 53.5785 229.241 54.6626 229.816H54.6675Z" fill="#1C080E"/>
<path d="M661.983 135.78C663.307 134.907 664.708 134.132 665.939 133.148C668.625 131.008 671.789 130.959 674.949 130.993C675.628 130.998 676.336 131.617 676.961 132.056C678.807 133.343 680.614 134.678 682.436 135.995C682.7 135.77 682.958 135.546 683.222 135.317C682.509 134.02 681.796 132.728 680.697 130.73C682.226 130.813 683.373 130.73 684.443 130.973C685.566 131.227 686.616 131.797 687.998 132.353C685.195 125.928 672.346 125.928 668.112 128.697C668.649 128.926 669.074 129.106 669.392 129.238C667.927 129.964 666.242 130.53 664.908 131.544C663.585 132.553 662.613 134.02 661.485 135.288C661.651 135.449 661.812 135.609 661.978 135.77L661.983 135.78Z" fill="#1C080E"/>
<path d="M541.655 169.07C543.97 170.518 545.992 171.786 548.756 173.516C547.72 173.897 547.007 174.155 546.294 174.413C546.397 174.764 546.495 175.11 546.597 175.461C550.148 176.032 553.698 176.607 557.224 177.172C557.097 176.968 556.677 176.28 556.228 175.608C554.553 173.082 555.046 172.044 558.142 171.844C559.827 171.732 561.527 171.825 563.343 171.825C561.522 169.148 557.644 167.808 554.645 169.309C552.409 170.431 550.836 170.031 548.839 168.992C546.714 167.891 544.341 167.189 541.655 169.066V169.07Z" fill="#1C080E"/>
<path d="M674.236 153.11C677.005 154.1 679.222 154.889 681.664 155.762C681.098 156.435 680.692 156.913 680.023 157.707C683.051 158.828 687.109 156.103 688.662 160.861C688.843 160.622 689.024 160.388 689.2 160.149C688.653 158.965 688.101 157.78 687.3 156.05C689.688 154.948 692.071 153.846 694.401 152.774C692.716 150.317 691.011 149.946 688.516 152.047C687.017 153.31 685.981 153.481 684.101 152.452C681.132 150.829 677.85 150.76 674.236 153.105V153.11Z" fill="#1C080E"/>
</g>
<defs>
<clipPath id="clip0_1738_9018">
<rect width="779" height="255" fill="white" transform="matrix(-1 0 0 1 779 0)"/>
</clipPath>
</defs>
</svg>
