<svg width="660" height="215" viewBox="0 0 660 215" fill="none" xmlns="http://www.w3.org/2000/svg">
<path d="M60.6771 13.822L123.878 78.5179C131.712 86.5368 142.757 92.3116 154.257 93.9964L221.06 103.783L134.401 109.885L82.5111 119.125L79.0486 113.04L77.2947 114.055L79.5126 117.98C79.9105 118.684 79.8857 119.608 79.0361 120.344C76.2103 122.665 78.1968 131.306 83.1165 131.057L83.5399 139.381C83.5711 139.998 83.1411 140.799 82.3078 140.608L45.967 132.299L37.9035 130.455L37.8182 109.238L4.23162 14.1896C4.01409 13.574 3.19748 13.3134 2.58171 13.3446L2.37739 9.27769L2.35769 8.88937L41.4896 5.94144L41.544 7.01461C41.5555 7.24063 41.7228 7.4357 41.99 7.41748L49.0453 6.93654C49.3362 6.91659 49.4763 6.62767 49.4629 6.36186L49.3757 4.64479C51.6717 4.52831 53.2284 6.19721 54.2497 7.24271L62.1987 15.3797" fill="white"/>
<path d="M597.124 159.664L594.443 172.175C594.335 172.679 592.882 172.795 591.198 172.434C589.513 172.073 588.236 171.372 588.344 170.868L591.025 158.357L597.124 159.664Z" fill="#363738"/>
<path d="M551.882 181.334L551.692 180.721L549.315 181.458C548.957 181.569 549.151 182.18 549.505 182.07L551.882 181.334Z" fill="#808080" stroke="#000001" stroke-opacity="0.4" stroke-width="0.4"/>
<path d="M552.276 182.603L563.048 179.263L562.071 176.112L551.299 179.452L552.276 182.603Z" fill="#828588"/>
<path d="M556.839 166.79L561.113 165.465L564.357 175.93L560.082 177.25L556.839 166.79Z" fill="#999B9C"/>
<path d="M563.68 189.181L562.906 186.683L567.363 185.302L568.137 187.8" fill="#FFD51B"/>
<path d="M563.68 189.181L562.906 186.683L567.363 185.302L568.137 187.8" stroke="#000001" stroke-opacity="0.4" stroke-width="0.4"/>
<path d="M563.471 186.508L566.797 185.477L564.518 178.126L561.192 179.157L563.471 186.508Z" fill="#999B9C"/>
<path d="M552.247 184.743C552.376 185.161 552.821 185.396 553.24 185.266C553.362 185.228 553.469 185.163 553.556 185.079L559.65 179.258C559.862 179.059 559.954 178.748 559.861 178.451C559.732 178.032 559.287 177.798 558.868 177.928C558.746 177.966 558.639 178.031 558.556 178.116L552.46 183.94C552.244 184.141 552.155 184.448 552.247 184.743Z" fill="#828588"/>
<path d="M558.083 179.003C557.908 178.439 558.223 177.841 558.787 177.666L564.566 175.866L564.995 176.86L565.202 177.914L559.42 179.707C558.856 179.882 558.257 179.566 558.083 179.003Z" fill="#828588"/>
<path d="M555.006 186.274L561.322 186.829C561.418 186.836 561.518 186.826 561.617 186.795C562.036 186.666 562.27 186.221 562.14 185.802C562.04 185.479 561.752 185.266 561.433 185.245L555.248 184.713C554.752 184.67 554.527 184.576 554.161 184.33L553.443 183.846C553.252 183.719 553.006 183.676 552.769 183.749C552.351 183.879 552.116 184.324 552.246 184.743C552.303 184.926 552.419 185.073 552.568 185.171C552.662 185.233 553.041 185.48 553.397 185.72C553.89 186.053 554.339 186.216 555.006 186.274Z" fill="#828588"/>
<path d="M560.362 186.353C560.187 185.79 560.502 185.191 561.066 185.017L563.106 184.375C563.243 184.333 563.323 184.233 563.3 184.021L563.198 183.064C563.172 182.832 563.285 182.689 563.416 182.648L564.659 182.263C564.791 182.222 564.964 182.277 565.075 182.482L565.532 183.329C565.633 183.517 565.755 183.554 565.892 183.512M560.363 186.353C560.538 186.917 561.136 187.232 561.7 187.057C561.981 186.97 562.236 187.12 562.426 187.422L568.077 185.411C568.035 185.275 567.433 185.112 567.283 184.628L566.845 183.216L565.892 183.512" fill="#828588"/>
<path d="M561.484 186.365C561.303 186.422 561.11 186.32 561.054 186.139C560.998 185.958 561.099 185.765 561.28 185.709C561.462 185.653 561.654 185.754 561.71 185.936C561.766 186.117 561.665 186.309 561.484 186.365Z" stroke="#000001" stroke-opacity="0.4" stroke-width="0.4" stroke-linecap="round"/>
<path d="M565.789 184.837L566.208 184.707L566.305 184.28L565.983 183.982L565.564 184.112L565.467 184.539L565.789 184.837Z" stroke="#000001" stroke-opacity="0.4" stroke-width="0.4" stroke-linecap="round"/>
<path d="M559.205 179.015C559.024 179.071 558.832 178.969 558.776 178.788C558.719 178.607 558.821 178.414 559.002 178.358C559.183 178.302 559.376 178.403 559.432 178.585C559.488 178.766 559.387 178.958 559.205 179.015Z" stroke="#000001" stroke-opacity="0.4" stroke-width="0.4" stroke-linecap="round"/>
<path d="M553.107 184.836C552.926 184.892 552.733 184.791 552.677 184.609C552.621 184.428 552.722 184.236 552.903 184.18C553.085 184.123 553.277 184.225 553.333 184.406C553.389 184.587 553.288 184.78 553.107 184.836Z" stroke="#000001" stroke-opacity="0.4" stroke-width="0.4" stroke-linecap="round"/>
<path d="M573.475 212.895C566.9 214.933 559.918 211.255 557.879 204.681C555.841 198.106 559.519 191.124 566.093 189.085C572.668 187.047 579.65 190.725 581.689 197.299C583.727 203.874 580.049 210.856 573.475 212.895Z" fill="#1A1A1A" stroke="black" stroke-width="0.4" stroke-linecap="round"/>
<path d="M571.548 206.68C568.406 207.654 565.069 205.896 564.095 202.754C563.12 199.612 564.878 196.274 568.02 195.3C571.163 194.326 574.5 196.084 575.474 199.226C576.448 202.368 574.69 205.705 571.548 206.68Z" fill="#B1B3B6" stroke="#000001" stroke-opacity="0.4" stroke-width="0.4" stroke-linecap="round"/>
<path d="M571.222 205.629C568.66 206.424 565.939 204.99 565.145 202.428C564.35 199.866 565.783 197.145 568.346 196.351C570.908 195.556 573.629 196.989 574.423 199.552C575.217 202.114 573.784 204.835 571.222 205.629Z" stroke="#000001" stroke-opacity="0.4" stroke-width="0.4" stroke-linecap="round"/>
<path d="M571.486 206.48C571.298 206.539 571.098 206.433 571.04 206.245C570.982 206.057 571.087 205.858 571.275 205.799C571.463 205.741 571.662 205.846 571.721 206.034C571.779 206.222 571.674 206.422 571.486 206.48Z" stroke="#000001" stroke-opacity="0.4" stroke-width="0.4" stroke-linecap="round"/>
<path d="M564.178 199.719C564.222 199.527 564.413 199.406 564.604 199.45C564.796 199.493 564.917 199.684 564.873 199.876C564.83 200.068 564.639 200.189 564.447 200.145C564.255 200.102 564.135 199.911 564.178 199.719Z" stroke="#000001" stroke-opacity="0.4" stroke-width="0.4" stroke-linecap="round"/>
<path d="M573.688 196.77C573.832 196.904 573.841 197.13 573.707 197.274C573.573 197.419 573.348 197.427 573.204 197.294C573.059 197.16 573.05 196.935 573.184 196.79C573.318 196.646 573.543 196.637 573.688 196.77Z" stroke="#000001" stroke-opacity="0.4" stroke-width="0.4" stroke-linecap="round"/>
<path d="M567.245 201.777C567.68 203.179 569.169 203.963 570.571 203.528C571.973 203.094 572.757 201.605 572.322 200.203C572.114 199.53 571.662 198.999 571.092 198.676C570.708 198.474 570.287 198.059 570.19 197.485L568.208 185.738C568.123 185.233 567.705 185.078 567.165 185.111C566.432 185.156 565.925 185.241 564.99 185.528C564.057 185.82 563.591 186.037 562.961 186.415C562.497 186.693 562.24 187.056 562.456 187.521L567.466 198.33C567.711 198.858 567.599 199.438 567.4 199.815C567.11 200.399 567.035 201.098 567.245 201.777Z" fill="#828588"/>
<path d="M570.211 202.366C569.451 202.602 568.644 202.177 568.408 201.417C568.172 200.657 568.597 199.85 569.357 199.614C570.117 199.378 570.924 199.803 571.16 200.563C571.396 201.323 570.971 202.13 570.211 202.366Z" fill="#C5CEDC" stroke="#000001" stroke-opacity="0.4" stroke-width="0.4" stroke-linecap="round"/>
<path d="M496.473 66.8607C506.858 69.0863 527.483 81.7846 536.057 95.0364C538.529 95.0833 541.033 95.154 543.558 95.2458L543.546 95.0173C583.735 97.5059 609.182 100.792 626.221 106.616C627.013 106.901 627.244 107.35 627.251 107.742L627.616 126.411L627.632 127.326C627.635 127.486 627.551 127.646 627.425 127.787C624.084 131.504 624.719 137.656 617.012 146.99L607.881 159.457C600.459 163.604 587.975 168.079 579.399 170.38C578.919 170.511 578.435 170.641 577.946 170.766C577.77 170.81 577.564 170.869 577.392 170.911L577.4 170.901C571.123 172.465 564.095 173.498 555.909 173.913L555.79 171.557C535.955 173.986 511.083 175.511 498.606 175.458C450.698 175.252 410.872 171.325 370.95 167.615L84.9061 141.035C84.1892 140.968 83.601 140.61 83.5609 139.819L82.5109 119.123L134.401 109.885L322.951 96.6079C340.192 86.8686 354.865 80.6083 367.798 76.706L367.961 79.1229L367.961 79.1249C368.057 80.5662 365.934 82.0559 363.07 83.8016C373.784 80.9056 388.234 79.1198 401.227 78.2179L405.923 78.0871C408.924 78.0032 411.645 76.9668 411.591 75.9097L415.142 77.9419C441.863 77.0639 460.638 76.3221 480.547 74.2017C488.27 73.3793 496.741 72.1444 496.527 67.9324L496.473 66.8607Z" fill="#FFD51B"/>
<path d="M496.464 66.8732C506.849 69.0988 527.474 81.7971 536.048 95.0489C538.52 95.0958 541.024 95.1664 543.549 95.2583L543.537 95.0298C583.726 97.5183 609.173 100.805 626.212 106.629C627.005 106.913 627.235 107.363 627.242 107.755L627.608 126.423L627.624 127.339C627.627 127.498 627.542 127.659 627.416 127.8C624.075 131.517 624.71 137.668 617.003 147.003L607.872 159.47C600.45 163.617 587.967 168.092 579.39 170.392C578.91 170.524 578.426 170.653 577.937 170.778C577.761 170.822 577.555 170.881 577.383 170.924L577.391 170.913C571.114 172.477 564.087 173.51 555.9 173.925L555.781 171.569C535.946 173.998 511.074 175.524 498.598 175.47C450.69 175.265 410.863 171.337 370.941 167.627L84.8973 141.047C84.1805 140.981 83.5923 140.622 83.5522 139.832L82.5022 119.136L134.392 109.897L322.943 96.6203C340.183 86.881 354.856 80.6207 367.789 76.7185L367.952 79.1353C367.952 79.136 367.952 79.1364 367.952 79.1353C368.048 80.5767 365.925 82.0662 363.061 83.812C373.775 80.9159 388.225 79.1302 401.219 78.2283L405.914 78.0975C408.915 78.0137 411.636 76.9772 411.582 75.9201L415.133 77.9522C441.854 77.0743 460.629 76.3325 480.538 74.2121C488.261 73.3897 496.732 72.1549 496.518 67.9429L496.464 66.8732Z" fill="white"/>
<path d="M37.8066 130.447L80.6919 130.447C80.6919 130.447 81.3752 130.779 81.8488 130.916C82.3224 131.053 83.1173 131.149 83.1173 131.149L83.0666 130.459L625.858 130.447L622.879 138.033L620.255 142.85L607.944 159.503C607.944 159.503 604.984 161.351 598.324 164.071C594.679 165.559 589.846 167.16 583.97 169.208C572.56 173.184 555.795 174.039 555.795 174.039L555.697 171.641C555.697 171.641 522.707 175.157 501.287 175.486C443.002 176.382 389.502 169.026 316.566 162.476C192.163 150.826 100.313 142.516 84.779 141.094C84.514 141.07 84.0483 140.955 83.8108 140.662C83.5604 140.353 83.545 139.865 83.545 139.865C83.545 139.865 83.4398 140.326 83.2173 140.502C82.9947 140.679 82.4053 140.77 82.4053 140.77L37.8066 130.447Z" fill="url(#paint0_linear_1097_15498)"/>
<path d="M133.562 122.058L627.526 122.058L627.624 127.058L133.562 127.058L133.562 122.058Z" fill="black"/>
<path d="M343.267 103.566C353.287 92.9438 359.259 84.9061 362.294 78.7371C350.933 82.5898 338.451 88.1332 323.923 96.2796C324.598 99.1459 335.347 102.377 343.267 103.566Z" fill="#8291AB"/>
<path d="M324.569 97.2858C325.21 97.1256 340.447 97.9241 347.986 98.3435L343.284 103.617L332.204 101.013C329.392 99.8372 323.928 97.4461 324.569 97.2858Z" fill="#6F7C92"/>
<path d="M343.103 100.406C344.909 100.44 354.59 88.3146 359.204 82.2479C357.315 83.0473 356.825 83.5674 356.128 83.6596C355.803 85.8466 347.654 94.9714 343.103 100.406Z" fill="#C0C0C0"/>
<path d="M495.35 105.784L484.066 76.179L483.944 73.8089C490.555 72.9569 496.71 71.5303 496.528 67.9318L496.474 66.8615C506.328 68.9733 525.401 80.5138 534.65 93.0091C530.006 94.5088 521.102 104.263 495.35 105.784Z" fill="#8291AB"/>
<path d="M532.095 89.9485L534.505 92.8821L533.548 93.413L528.918 96.1111L522.199 99.7839L513.267 102.78C513.114 97.0001 512.029 87.1451 514.714 87.1451C516.319 87.1452 518.006 89.6648 519.423 89.9485L525.48 89.9485L532.095 89.9485Z" fill="#424C5C"/>
<path d="M463.23 50.78C473.708 50.3673 483.27 51.1948 486.123 54.3755L496.13 65.535C496.35 65.7804 496.429 66.0072 496.443 66.2673L496.527 67.9318C496.741 72.1438 488.272 73.3805 480.549 74.203C460.64 76.3234 441.865 77.0654 415.143 77.9431L411.591 75.9111C411.645 76.9681 408.924 78.0047 405.923 78.0885L401.738 78.2056C388.616 79.0961 373.925 80.894 363.073 83.8271C365.938 82.0806 368.062 80.5905 367.964 79.1485L367.747 74.8629L396.652 58.3308C397.089 58.0478 397.614 57.7871 398.181 57.7078C423.803 54.1209 437.87 52.4897 458.701 51.0301C460.218 50.9237 461.734 50.8389 463.23 50.78Z" fill="#560A03"/>
<path d="M86.4619 141.181L87.4855 141.293L87.3917 142.121C88.2974 142.434 88.9666 143.27 89.0182 144.285C89.0859 145.62 88.0588 146.757 86.7239 146.825C85.3891 146.892 84.2522 145.865 84.1845 144.53C84.1187 143.234 85.0858 142.126 86.3636 142.001L86.4619 141.181ZM86.5552 142.936C86.5457 142.936 86.5363 142.937 86.5268 142.937C86.137 142.958 85.7712 143.132 85.5095 143.421C85.2479 143.711 85.1117 144.093 85.1311 144.482C85.1508 144.873 85.3246 145.239 85.6143 145.501C85.904 145.763 86.2859 145.899 86.6761 145.88C86.8695 145.87 87.0591 145.823 87.234 145.74C87.4089 145.657 87.5657 145.54 87.6955 145.396C87.8253 145.253 87.9255 145.085 87.9904 144.902C88.0554 144.72 88.0837 144.526 88.0738 144.333C88.0539 143.948 87.8837 143.586 87.5998 143.324C87.3158 143.063 86.9408 142.924 86.5552 142.936Z" fill="#483E37" stroke="#000001" stroke-opacity="0.4" stroke-width="0.4" stroke-miterlimit="3.99149"/>
<path d="M390.702 74.2227L416.314 59.47C410.509 59.1569 404.066 58.7727 396.651 58.3311" stroke="#000001" stroke-opacity="0.4" stroke-width="0.4" stroke-miterlimit="3.99149"/>
<path d="M480.944 57.5897C475.281 59.2981 465.76 60.5779 459.089 60.873L399.898 62.2071C399.786 59.9864 398.851 57.034 396.616 58.3335C397.053 58.0507 397.578 57.7905 398.145 57.7112C423.766 54.1243 437.834 52.4926 458.665 51.033C469.778 50.2543 480.797 50.6587 485.076 53.5102C486.307 54.4478 485.656 56.1709 480.944 57.5897Z" fill="#FFD51B"/>
<path d="M480.944 57.5897C475.281 59.2981 465.76 60.5779 459.089 60.873L399.898 62.2071C399.786 59.9864 398.851 57.034 396.616 58.3335C397.053 58.0507 397.578 57.7905 398.145 57.7112C423.766 54.1243 437.834 52.4926 458.665 51.033C469.778 50.2543 480.797 50.6587 485.076 53.5102C486.307 54.4478 485.656 56.1709 480.944 57.5897Z" fill="#F82619"/>
<path d="M367.963 79.1482L367.746 74.8637L396.652 58.3311C397.089 58.0481 397.614 57.7878 398.181 57.7085C423.803 54.1216 437.87 52.49 458.701 51.0303C470.838 50.1799 482.863 50.7407 486.123 54.3757L496.13 65.5349C496.35 65.7803 496.43 66.0065 496.444 66.2667L496.474 66.8616" stroke="#000001" stroke-opacity="0.4" stroke-width="0.4" stroke-miterlimit="3.99149"/>
<path d="M415.143 77.9423L414.92 73.5463L405.706 73.8036L367.746 74.8636" stroke="#000001" stroke-opacity="0.4" stroke-width="0.4" stroke-miterlimit="3.99149"/>
<path d="M411.593 75.91L411.478 73.6425" stroke="#000001" stroke-opacity="0.4" stroke-width="0.4" stroke-miterlimit="3.99149"/>
<path d="M393.27 74.1509L393.487 78.4353" stroke="#000001" stroke-opacity="0.4" stroke-width="0.4" stroke-miterlimit="3.99149"/>
<path d="M393.279 74.5448L367.765 75.2573" stroke="#000001" stroke-opacity="0.4" stroke-width="0.4" stroke-miterlimit="3.99149"/>
<path d="M393.305 75.042L367.791 75.7545" stroke="#000001" stroke-opacity="0.4" stroke-width="0.4" stroke-miterlimit="3.99149"/>
<path d="M393.34 75.5376L367.826 76.2501" stroke="#000001" stroke-opacity="0.4" stroke-width="0.4" stroke-miterlimit="3.99149"/>
<path d="M393.365 76.035L367.851 76.7476" stroke="#000001" stroke-opacity="0.4" stroke-width="0.4" stroke-miterlimit="3.99149"/>
<path d="M393.39 76.5321L367.876 77.2446" stroke="#000001" stroke-opacity="0.4" stroke-width="0.4" stroke-miterlimit="3.99149"/>
<path d="M393.416 77.0295L367.901 77.7421" stroke="#000001" stroke-opacity="0.4" stroke-width="0.4" stroke-miterlimit="3.99149"/>
<path d="M393.441 77.5267L367.927 78.2393" stroke="#000001" stroke-opacity="0.4" stroke-width="0.4" stroke-miterlimit="3.99149"/>
<path d="M393.466 78.0242L367.952 78.7367" stroke="#000001" stroke-opacity="0.4" stroke-width="0.4" stroke-miterlimit="3.99149"/>
<path d="M476.527 80.2647L422.899 82.9855C420.722 83.096 418.92 85.0314 419.033 87.265L419.987 106.074C420.109 108.474 422.402 110.562 424.82 110.44L478.935 107.694C482.088 107.534 483.921 105.08 483.188 101.778L478.815 82.0552C478.603 81.1004 477.8 80.2001 476.527 80.2647Z" stroke="black" stroke-opacity="0.3" stroke-width="0.4" stroke-miterlimit="3.99149"/>
<g style="mix-blend-mode:multiply">
<path d="M476.168 77.5016L422.576 80.2206C419.345 80.3846 416.179 83.7177 416.351 87.1116L419.511 149.409C419.786 154.825 423.204 159.141 428.887 159.394L484.316 161.866C490.798 162.156 495.107 157.73 495.652 154.421" stroke="#999B9C" stroke-opacity="0.8" stroke-width="0.4" stroke-miterlimit="3.99149"/>
</g>
<path d="M475.996 81.0452L422.716 83.7484C421.228 83.8239 419.688 85.5079 419.769 87.0959L420.747 106.38C420.801 107.447 422.622 109.765 424.492 109.67L479.076 106.901C481.377 106.784 483.054 104.617 482.523 102.233L478.166 82.6816C477.906 81.5147 477.399 80.974 475.996 81.0452Z" fill="#8291AB"/>
<path d="M79.0486 113.04L77.2947 114.055L79.5126 117.98C79.9105 118.684 79.8857 119.608 79.0361 120.344C76.2103 122.665 78.1968 131.306 83.1165 131.056" stroke="black" stroke-opacity="0.3" stroke-width="0.4" stroke-miterlimit="3.99149"/>
<path d="M430.422 113.711L425.251 113.973C424.845 113.994 424.535 114.337 424.556 114.743L424.683 117.26C424.704 117.665 425.047 117.975 425.453 117.955L430.624 117.693C431.03 117.672 431.34 117.329 431.319 116.923L431.191 114.406C431.171 114 430.828 113.691 430.422 113.711Z" fill="white" fill-opacity="0.6" stroke="black" stroke-opacity="0.3" stroke-width="0.4" stroke-miterlimit="3.99149" stroke-linecap="round" stroke-linejoin="round"/>
<g style="mix-blend-mode:multiply">
<path d="M429.389 117.755C429.795 117.735 430.105 117.391 430.084 116.986L429.957 114.469C429.936 114.063 429.593 113.753 429.187 113.774" stroke="black" stroke-opacity="0.3" stroke-width="0.4" stroke-miterlimit="3.99149" stroke-linecap="round" stroke-linejoin="round"/>
</g>
<path d="M534.65 93.0087C530.007 94.5089 521.103 104.264 495.35 105.784L484.067 76.179L483.947 73.8088" stroke="#000001" stroke-opacity="0.4" stroke-width="0.4" stroke-miterlimit="3.99149"/>
<path d="M495.35 105.784L496.211 108.117C523.217 106.523 530.142 97.0837 536.059 95.0367" stroke="black" stroke-opacity="0.3" stroke-width="0.4" stroke-miterlimit="3.99149"/>
<path d="M47.9385 6.09881L47.4772 2.89258C47.4196 2.49299 47.2698 2.29176 47.1535 2.19114C46.9112 1.98169 46.3239 1.46593 45.1097 1.55391C43.8955 1.64189 43.3886 2.23694 43.1791 2.47915C43.0597 2.61721 42.9592 2.81621 42.9599 3.21992L42.9656 6.45915" fill="#D40000"/>
<path d="M47.9385 6.09881L47.4772 2.89258C47.4196 2.49299 47.2698 2.29176 47.1535 2.19114C46.9112 1.98169 46.3239 1.46593 45.1097 1.55391C43.8955 1.64189 43.3886 2.23694 43.1791 2.47915C43.0597 2.61721 42.9592 2.81621 42.9599 3.21992L42.9656 6.45915" stroke="#000001" stroke-opacity="0.4" stroke-width="0.4"/>
<path d="M42.5841 6.90089C42.5693 6.68981 42.6813 6.47974 42.9663 6.45905L47.9391 6.09872C48.2241 6.07803 48.3657 6.26983 48.381 6.48088L48.4163 6.96688L42.6194 7.38689L42.5841 6.90089Z" fill="#666666" stroke="#000001" stroke-opacity="0.4" stroke-width="0.4" stroke-miterlimit="3.99149"/>
<path d="M60.677 13.822L123.878 78.5179C131.712 86.5368 142.757 92.3116 154.257 93.9964L221.06 103.783M83.5399 139.381C83.5711 139.998 83.1411 140.799 82.3078 140.608L45.967 132.299L4.23163 14.1896C4.0141 13.574 3.19748 13.3134 2.5817 13.3447L2.37739 9.27769L2.35769 8.88937L41.4896 5.94144L41.544 7.01461C41.5555 7.24063 41.7228 7.4357 41.99 7.41748L49.0453 6.93654C49.3362 6.91659 49.4764 6.62767 49.4629 6.36186L49.3758 4.64479C51.6717 4.52831 53.2284 6.19721 54.2497 7.24271L62.1987 15.3797" stroke="#000001" stroke-opacity="0.4" stroke-width="0.4" stroke-miterlimit="3.99149"/>
<path d="M2.0498 12.7495C1.09792 12.7978 0.287131 12.0653 0.238837 11.1134C0.190544 10.1616 0.923039 9.35077 1.87491 9.30248L2.37752 9.27749L2.5594 12.7187L2.0498 12.7495Z" fill="#FFF6D5" stroke="#000001" stroke-opacity="0.4" stroke-width="0.4" stroke-miterlimit="3.99149" stroke-linecap="round"/>
<path d="M33.9197 6.50425L38.2228 14.961L27.0919 21.7406L82.5104 119.125" stroke="black" stroke-opacity="0.3" stroke-width="0.4" stroke-miterlimit="3.99149"/>
<path d="M49.9093 61.8349L48.8003 62.4617L50.7639 65.8949L51.8698 65.28L49.9093 61.8349Z" stroke="black" stroke-opacity="0.3" stroke-width="0.4" stroke-miterlimit="3.99149"/>
<path d="M27.0927 21.7408L26.5369 22.0538L28.4608 25.4438L29.0201 25.1277" stroke="black" stroke-opacity="0.3" stroke-width="0.4" stroke-miterlimit="3.99149"/>
<path d="M437.383 171.517L438.812 171.521C439.559 171.523 439.855 170.756 439.722 170.247L438.639 166.075C438.423 165.246 437.731 164.546 436.585 164.561L423.058 164.736C422.33 164.746 421.656 165.387 421.82 166.085L422.79 170.227C422.992 171.092 423.741 171.478 424.391 171.48L427 171.488" stroke="#000001" stroke-opacity="0.4" stroke-width="0.4" stroke-miterlimit="3.99149"/>
<path d="M436.899 168.509C436.807 167.908 436.379 167.435 435.721 167.444L425.703 167.586C425.043 167.595 424.656 168.29 424.896 168.842C425.021 169.131 425.144 169.415 425.268 169.701C423.303 169.151 424.225 167.011 425.558 166.992L435.79 166.846C436.776 166.832 437.422 167.668 437.447 168.173C437.471 168.633 437.317 168.935 437.01 169.239C436.973 168.989 436.936 168.746 436.899 168.509Z" fill="#999B9C"/>
<path d="M437.01 169.239C437.316 168.935 437.47 168.633 437.446 168.173C437.421 167.668 436.775 166.832 435.789 166.846L425.557 166.992C423.802 167.017 423.61 169.347 425.221 169.596L425.577 169.632" stroke="#000001" stroke-opacity="0.4" stroke-width="0.4" stroke-miterlimit="3.99149"/>
<path d="M354.481 101.307L360.384 93.9959C362.999 90.7572 366.664 88.5657 371.122 87.8704C381.268 86.288 396.704 85.3682 407.81 84.7631C410.093 84.6472 411.521 86.6436 411.602 88.2309L412.525 106.441C412.622 108.348 411.077 110.317 408.784 110.445C387.881 111.611 366.932 109.964 357.467 107.705C354.48 107.075 352.698 103.661 354.481 101.307Z" fill="#8291AB"/>
<path d="M354.481 101.307C354.481 101.307 355.563 104.528 357.237 104.898C358.911 105.267 364.473 107.597 369.089 107.911C381.284 108.741 382.331 110.311 394.467 108.848C398.437 108.37 404.501 108.144 406.442 108.384C408.383 108.625 412.526 106.441 412.526 106.441C412.622 108.348 411.078 110.317 408.785 110.445C387.882 111.611 366.933 109.964 357.467 107.705C354.48 107.075 352.698 103.661 354.481 101.307Z" fill="#6F7C92"/>
<g clip-path="url(#clip0_1097_15498)">
<path fill-rule="evenodd" clip-rule="evenodd" d="M475.548 98.7969C475.567 98.794 475.587 98.79 475.602 98.7787L475.602 98.7762C475.618 98.7651 475.629 98.745 475.624 98.7265C475.619 98.71 475.604 98.6987 475.589 98.6898C475.524 98.6492 475.45 98.6242 475.377 98.5992C475.332 98.5838 475.286 98.5683 475.243 98.5492C475.221 98.5396 475.197 98.5257 475.193 98.5023C475.19 98.4805 475.207 98.4606 475.226 98.4488C475.233 98.4445 475.24 98.4408 475.247 98.4371C475.26 98.4307 475.272 98.4244 475.282 98.415C475.32 98.3816 475.316 98.3183 475.285 98.2788C475.255 98.2392 475.204 98.2198 475.155 98.2102C475.092 98.198 475.026 98.1994 474.963 98.2144C474.932 98.2218 474.89 98.2264 474.879 98.197C474.876 98.1869 474.878 98.1756 474.88 98.1652L474.894 98.0954C474.899 98.0716 474.904 98.0469 474.898 98.0233C474.893 97.9997 474.874 97.9772 474.85 97.9755C474.828 97.974 474.81 97.9878 474.792 98.001C474.79 98.0031 474.787 98.0051 474.784 98.0071C474.764 98.0218 474.735 98.0329 474.716 98.0171C474.708 98.0106 474.704 98.0006 474.7 97.9912L474.7 97.9909C474.648 97.8736 474.543 97.7804 474.421 97.7407C474.421 97.731 474.421 97.7215 474.42 97.7119C474.42 97.7072 474.42 97.7024 474.42 97.6976C474.418 97.6005 474.415 97.5048 474.412 97.4091C474.409 97.301 474.406 97.1928 474.404 97.0825C474.403 97.0129 474.403 96.9415 474.426 96.8757C474.443 96.8285 474.472 96.786 474.509 96.7527C474.523 96.741 474.537 96.7303 474.552 96.721C474.603 96.6899 474.662 96.6754 474.721 96.6608C474.765 96.65 474.809 96.6392 474.85 96.6215C474.944 96.5807 475.021 96.5034 475.07 96.4128C475.071 96.4104 475.073 96.4079 475.074 96.4055C475.077 96.4011 475.079 96.3967 475.081 96.3921C475.119 96.3153 475.108 96.1416 475.1 96.0154C475.097 95.978 475.095 95.9448 475.095 95.9195C475.09 95.677 474.924 95.4754 474.758 95.297C474.75 95.2881 474.742 95.2782 474.737 95.2674C474.733 95.2597 474.731 95.2515 474.733 95.243C474.736 95.2232 474.756 95.2119 474.774 95.2016C474.776 95.2004 474.778 95.1992 474.78 95.1981C474.829 95.1692 474.864 95.1227 474.894 95.0735C474.903 95.0595 474.911 95.0452 474.919 95.031L474.922 95.0263C474.962 94.955 475.003 94.8832 475.032 94.8065C475.067 94.7125 475.085 94.6126 475.095 94.5127C475.114 94.3235 475.104 94.1184 474.991 93.9651C474.934 93.8882 474.856 93.831 474.776 93.7782C474.759 93.7669 474.741 93.7557 474.724 93.7445L474.551 93.6339C474.514 93.6101 474.478 93.5843 474.444 93.5564C474.405 93.5243 474.363 93.4855 474.358 93.4349C474.355 93.3952 474.359 93.3321 474.382 93.2995C474.42 93.2462 474.461 93.2126 474.505 93.177C474.531 93.1552 474.559 93.1326 474.587 93.1043C474.613 93.0783 474.653 93.0505 474.693 93.0222C474.742 92.9876 474.792 92.952 474.822 92.9175C474.864 92.8674 474.902 92.8305 474.936 92.7967C475.018 92.716 475.083 92.6524 475.157 92.4648L475.158 92.4625C475.162 92.4521 475.166 92.4419 475.17 92.4306C475.174 92.4199 475.18 92.4047 475.187 92.3868C475.215 92.3174 475.259 92.2074 475.258 92.1631C475.25 91.8499 475.071 91.5569 474.817 91.3719C474.575 91.195 474.395 91.0644 474.135 90.8878C473.74 90.62 473.362 90.2902 473.009 89.9707C472.951 89.9186 472.848 89.787 472.825 89.7129C472.822 89.7018 472.817 89.6872 472.811 89.6705C472.79 89.6048 472.757 89.5064 472.761 89.4611C472.784 89.2409 472.853 89.0549 472.927 88.8579C472.951 88.7918 472.976 88.7246 473 88.6544C473.163 88.1788 473.114 87.663 472.881 87.2786C472.745 87.0537 472.614 86.8791 472.493 86.7171C472.268 86.4166 472.076 86.1597 471.942 85.7066C471.935 85.6804 471.927 85.6543 471.919 85.6283C471.9 85.5656 471.882 85.503 471.865 85.4397C471.81 85.2305 471.644 84.9009 471.422 84.6375C471.064 84.212 470.609 83.8655 470.144 83.5574C470.125 83.5446 470.105 83.5308 470.088 83.5148C470.072 83.4995 470.059 83.4821 470.052 83.4609C470.045 83.4374 470.047 83.4124 470.049 83.3881C470.064 83.2325 470.1 83.0789 470.156 82.9332C470.174 82.888 470.199 82.8384 470.246 82.8251C470.259 82.8216 470.272 82.8211 470.285 82.8205C470.318 82.8191 470.35 82.8177 470.37 82.7716C470.383 82.7402 470.383 82.7047 470.374 82.6719C470.351 82.5882 470.391 82.5107 470.432 82.4402C470.464 82.3845 470.499 82.3295 470.534 82.2743C470.656 82.0803 470.778 81.8854 470.812 81.6615C470.865 81.3079 470.654 80.9316 470.324 80.7897C470.265 80.764 470.202 80.7454 470.139 80.7269C470.065 80.705 469.991 80.683 469.922 80.6493C469.887 80.6323 469.848 80.5989 469.861 80.5624C469.867 80.5455 469.917 80.4779 469.932 80.4679C469.97 80.4424 469.99 80.4283 470.009 80.4141C470.029 80.3999 470.048 80.3858 470.086 80.3603C470.091 80.3664 470.115 80.342 470.139 80.3177C470.163 80.2935 470.186 80.2693 470.191 80.2754C470.306 80.1837 470.344 80.0096 470.297 79.8709C470.285 79.8355 470.267 79.8005 470.249 79.7656C470.21 79.6867 470.171 79.6084 470.198 79.5284C470.213 79.4839 470.246 79.4491 470.28 79.4144C470.316 79.3763 470.353 79.3385 470.364 79.2885C470.368 79.2724 470.369 79.2551 470.371 79.238C470.373 79.2046 470.375 79.1716 470.397 79.1476C470.425 79.1167 470.47 79.1168 470.514 79.1169C470.525 79.1169 470.536 79.1169 470.547 79.1164C470.725 79.1082 470.846 78.9317 470.942 78.7915L470.946 78.7869C470.967 78.7555 470.977 78.716 470.966 78.6797C470.937 78.5856 470.819 78.6061 470.758 78.6623C470.737 78.6813 470.719 78.7032 470.701 78.7251C470.671 78.7605 470.642 78.7958 470.602 78.818C470.586 78.741 470.463 78.7171 470.418 78.7822C470.384 78.7526 470.348 78.7219 470.303 78.7118C470.259 78.7018 470.204 78.72 470.189 78.7629C470.177 78.7992 470.195 78.8669 470.209 78.9161C470.212 78.928 470.215 78.9388 470.217 78.9478C470.242 79.0519 470.159 79.1068 470.071 79.1657C470.057 79.1748 470.043 79.184 470.03 79.1934C470.005 79.211 469.966 79.2269 469.947 79.2024C469.941 79.1939 469.94 79.183 469.938 79.1724C469.938 79.171 469.938 79.1696 469.938 79.1683C469.925 79.0676 469.845 79 469.765 78.9314C469.725 78.8977 469.685 78.8637 469.653 78.8254C469.493 78.6367 469.518 78.3375 469.58 78.0986C469.588 78.0674 469.597 78.0362 469.606 78.0049C469.663 77.7972 469.72 77.5899 469.637 77.3917C469.634 77.3836 469.63 77.3753 469.626 77.367C469.603 77.3135 469.578 77.2568 469.602 77.2054C469.604 77.1994 469.608 77.1937 469.611 77.188C469.623 77.1668 469.636 77.1457 469.616 77.1106C469.594 77.0694 469.544 77.0496 469.498 77.062C469.44 77.0776 469.402 77.1208 469.364 77.1643C469.347 77.1833 469.33 77.2023 469.312 77.2191C469.298 77.2314 469.283 77.2428 469.269 77.2542C469.235 77.2801 469.202 77.3059 469.182 77.3427C469.136 77.4306 469.188 77.5354 469.233 77.6241C469.278 77.7129 469.304 77.858 469.234 77.9285C469.207 77.9549 469.174 77.9612 469.14 77.9675C469.108 77.9736 469.075 77.9797 469.049 78.0038C468.995 78.0525 468.989 78.133 468.988 78.2051L468.974 78.7035C468.973 78.7393 468.968 78.7825 468.935 78.7978C468.915 78.8071 468.892 78.802 468.871 78.7953C468.583 78.7041 468.438 78.3553 468.466 78.0639C468.474 77.9848 468.466 77.9043 468.434 77.8314C468.362 77.6646 468.244 77.6916 468.131 77.7174C468.054 77.7348 467.981 77.7516 467.925 77.7076C467.872 77.6657 467.836 77.5743 467.807 77.5018C467.802 77.4874 467.796 77.4737 467.791 77.4613C467.76 77.3866 467.696 77.3094 467.616 77.3187C467.518 77.3298 467.482 77.4661 467.531 77.5507C467.535 77.5586 467.54 77.5667 467.546 77.5749C467.571 77.6148 467.598 77.6577 467.575 77.6957C467.566 77.7096 467.553 77.7189 467.539 77.7282C467.53 77.7347 467.52 77.7412 467.512 77.7495C467.48 77.7839 467.485 77.8326 467.491 77.8825C467.495 77.9243 467.5 77.9669 467.482 78.0026C467.466 78.0369 467.431 78.0583 467.397 78.077C467.387 78.0827 467.377 78.0883 467.366 78.094C467.274 78.1442 467.18 78.1957 467.131 78.2919C467.105 78.3433 467.1 78.4042 467.123 78.457C467.155 78.5305 467.214 78.5432 467.274 78.5561C467.298 78.5614 467.323 78.5667 467.346 78.5763C467.401 78.5996 467.444 78.6773 467.399 78.7171C467.382 78.7322 467.316 78.7745 467.294 78.7776C467.24 78.7851 467.195 78.7829 467.151 78.7807C467.107 78.7785 467.063 78.7763 467.009 78.7838C466.99 78.7864 466.968 78.7899 466.955 78.8046C466.943 78.8187 466.942 78.839 466.941 78.8577C466.936 79.0198 466.944 79.182 466.964 79.3428C466.93 79.3785 466.88 79.398 466.83 79.417C466.761 79.4435 466.695 79.469 466.682 79.5367C466.673 79.5807 466.694 79.6247 466.715 79.6645C466.845 79.9138 466.988 80.1559 467.144 80.3899L467.147 80.3942C467.195 80.4671 467.245 80.5422 467.249 80.6323C467.252 80.6889 467.232 80.7465 467.187 80.7814C467.094 80.8538 466.967 80.7883 466.872 80.724L466.421 80.4174C466.327 80.3537 466.232 80.2887 466.16 80.201C466.043 80.0578 466 79.8696 465.961 79.689C465.935 79.5699 465.859 79.4756 465.783 79.3801C465.751 79.3403 465.719 79.3002 465.69 79.2581C465.66 79.2149 465.63 79.1701 465.62 79.119C465.608 79.0651 465.62 79.0095 465.631 78.9555C465.631 78.9529 465.632 78.9503 465.632 78.9477C465.664 78.7912 465.683 78.6322 465.69 78.4726C465.692 78.4292 465.665 78.368 465.642 78.313C465.629 78.2837 465.617 78.2562 465.611 78.234C465.572 78.1012 465.522 78.0467 465.426 77.9466C465.359 77.877 465.301 77.7572 465.375 77.6951C465.387 77.6851 465.402 77.6779 465.416 77.6708C465.445 77.6566 465.473 77.6426 465.479 77.6073C465.489 77.5531 465.444 77.5082 465.388 77.5076C465.373 77.5074 465.359 77.5071 465.345 77.5068C465.17 77.503 465.056 77.5006 464.769 77.8265C464.697 77.9075 464.645 77.9389 464.579 77.978C464.545 77.9983 464.507 78.0206 464.462 78.0529C464.389 78.1047 464.325 78.1043 464.243 78.1039C464.229 78.1038 464.215 78.1037 464.2 78.1039C464.133 78.1046 464.058 78.0642 463.983 78.0238C463.852 77.9536 463.722 77.8833 463.633 78.0285C463.589 78.1009 463.581 78.1903 463.614 78.2685C463.649 78.3519 463.714 78.4167 463.785 78.4744C463.82 78.5027 463.807 78.5581 463.763 78.5684C463.582 78.6116 463.39 78.5918 463.199 78.5722C463.145 78.5667 463.091 78.5612 463.038 78.5572C462.76 78.5359 462.439 78.5771 462.281 78.8057C462.155 78.5518 461.826 78.4694 461.543 78.4937L461.538 78.4942C461.469 78.5001 461.392 78.5068 461.34 78.4615C461.284 78.4122 461.292 78.3087 461.355 78.2687C461.249 78.2744 461.129 78.2753 461.053 78.2008C461.017 78.1654 460.997 78.1185 460.978 78.0715C460.969 78.0512 460.961 78.0309 460.951 78.0116C460.918 77.947 460.854 77.8851 460.783 77.899C460.768 77.902 460.753 77.9097 460.748 77.924C460.744 77.9341 460.747 77.9453 460.749 77.9557L460.859 78.3934C460.822 78.3927 460.792 78.3964 460.764 78.3999C460.711 78.4065 460.667 78.412 460.597 78.3828C460.511 78.3468 460.421 78.3084 460.337 78.2667C460.323 78.2593 460.306 78.2519 460.29 78.2573C460.251 78.271 460.275 78.33 460.305 78.3591L460.479 78.5331C460.268 78.5598 460.068 78.6651 459.926 78.8236C459.841 78.919 459.778 79.0327 459.739 79.1542C459.713 79.236 459.698 79.3221 459.703 79.4078C459.707 79.5013 459.735 79.5921 459.763 79.6818L459.929 80.2228C459.939 80.2563 459.945 80.302 459.914 80.3179C459.891 80.3293 459.864 80.316 459.842 80.3029L459.605 80.1609C459.486 80.0897 459.354 79.9988 459.342 79.8613C459.339 79.8374 459.341 79.8119 459.342 79.7866C459.345 79.7267 459.348 79.6673 459.305 79.6295C459.271 79.5989 459.22 79.5977 459.174 79.6001C458.941 79.6123 458.711 79.6728 458.503 79.7769C458.5 79.7786 458.496 79.7804 458.493 79.7821C458.462 79.7977 458.431 79.8134 458.397 79.8195C458.306 79.8357 458.227 79.8113 458.143 79.7741C458.041 79.7286 457.921 79.6761 457.809 79.6755L457.806 79.6755C457.791 79.6755 457.774 79.6755 457.759 79.6708C457.727 79.6606 457.705 79.6305 457.686 79.6028C457.64 79.5385 457.586 79.4726 457.509 79.4537C457.433 79.4345 457.335 79.4912 457.345 79.5691C457.353 79.6301 457.415 79.6663 457.471 79.6931C457.469 79.7422 457.432 79.7757 457.393 79.8099C457.372 79.8287 457.351 79.8476 457.335 79.8695C457.313 79.8991 457.302 79.9358 457.303 79.9724C457.305 80.0444 457.353 80.1089 457.415 80.1467C457.476 80.1845 457.577 80.2401 457.649 80.2498C457.807 80.2713 457.966 80.2648 458.123 80.2584C458.38 80.2478 458.632 80.2375 458.868 80.3503C458.901 80.3662 458.935 80.3859 458.953 80.4183C458.973 80.454 458.939 80.5242 458.91 80.5847C458.895 80.6152 458.882 80.6433 458.877 80.6631C458.831 80.8534 458.952 81.001 459.077 81.1534C459.109 81.1918 459.141 81.2305 459.17 81.2702C459.221 81.3398 459.277 81.4243 459.249 81.5059C459.233 81.5514 459.194 81.6113 459.15 81.6314C459.028 81.6873 458.881 81.6223 458.766 81.5547C458.708 81.521 458.66 81.4638 458.612 81.4066C458.563 81.3489 458.515 81.2913 458.456 81.2577C458.244 81.1356 457.954 81.1836 457.725 81.2724C457.595 81.1565 457.463 81.0978 457.29 81.0709C457.25 81.0646 457.203 81.0476 457.158 81.031C457.123 81.0182 457.088 81.0056 457.057 80.9982C456.987 80.9813 456.916 80.932 456.906 80.8601C456.899 80.8093 456.924 80.7601 456.948 80.7147C456.982 80.6503 457.016 80.5844 457.028 80.513C457.04 80.4415 456.998 80.3771 456.949 80.3236C456.914 80.2858 456.871 80.2615 456.829 80.2376C456.775 80.2071 456.722 80.1772 456.689 80.1206C456.671 80.0897 456.665 80.0541 456.659 80.0185C456.657 80.0056 456.654 79.9928 456.652 79.9801C456.641 79.9326 456.617 79.8817 456.571 79.8664C456.505 79.8448 456.444 79.9037 456.4 79.9567C456.379 79.9828 456.356 80.0107 456.351 80.044C456.345 80.0868 456.368 80.1262 456.391 80.1654C456.414 80.2059 456.438 80.2462 456.429 80.2899C456.384 80.2836 456.354 80.3402 456.361 80.3849C456.365 80.4096 456.376 80.4325 456.387 80.4554C456.395 80.4737 456.404 80.492 456.409 80.5114C456.42 80.5514 456.416 80.5929 456.412 80.6344C456.41 80.6501 456.409 80.6659 456.408 80.6815C456.398 80.8941 456.514 81.079 456.676 81.218C456.713 81.2496 456.77 81.2727 456.827 81.2957C456.876 81.3153 456.925 81.3349 456.96 81.3596C457.026 81.4048 457.069 81.4592 457.113 81.5142C457.14 81.5495 457.169 81.5851 457.203 81.6189C457.249 81.6636 457.292 81.7135 457.315 81.7729C457.339 81.8324 457.358 81.9336 457.324 81.9881C457.259 82.0943 457.121 82.0971 457 82.0674C456.933 82.051 456.867 82.0083 456.803 81.9666C456.764 81.9412 456.725 81.9161 456.687 81.8976C456.539 81.8257 456.368 81.7726 456.205 81.7221L456.187 81.7164C456.157 81.7071 456.128 81.695 456.1 81.683C456.042 81.6585 455.986 81.6348 455.924 81.6382C455.828 81.6434 455.739 81.7387 455.686 81.8183C455.632 81.9006 455.635 81.997 455.681 82.0844C455.713 82.1467 455.759 82.1768 455.811 82.2108C455.832 82.2245 455.853 82.2388 455.876 82.256C456.023 82.3703 456.184 82.4674 456.354 82.545C456.36 82.5479 456.366 82.5508 456.373 82.5536C456.439 82.5835 456.506 82.614 456.554 82.6671C456.576 82.6912 456.594 82.7205 456.599 82.7527C456.612 82.8535 456.477 82.9738 456.38 83.0073C456.06 83.1186 455.739 83.1064 455.402 83.0701C455.378 83.0675 455.353 83.0619 455.328 83.0562C455.265 83.0423 455.201 83.028 455.15 83.0573C455.056 83.1107 455.062 83.2474 455.097 83.349C455.136 83.4609 455.194 83.5659 455.269 83.6576C455.325 83.7253 455.39 83.7867 455.468 83.8267C455.59 83.8891 455.73 83.895 455.868 83.9008C455.886 83.9015 455.904 83.9023 455.922 83.9031C456.085 83.9112 456.248 83.9314 456.408 83.9635C456.48 83.9778 456.559 84.0002 456.595 84.0632C456.643 84.1451 456.594 84.2472 456.545 84.3287C456.524 84.3642 456.501 84.402 456.462 84.416C456.429 84.4278 456.394 84.4204 456.36 84.4123C455.969 84.3191 455.59 84.1743 455.237 83.9826C455.224 83.9754 455.211 83.9682 455.197 83.9609C455.063 83.8871 454.925 83.8114 454.772 83.8017C454.748 83.8002 454.723 83.8008 454.702 83.8125C454.654 83.8397 454.656 83.9125 454.687 83.9584C454.706 83.9865 454.731 84.0086 454.757 84.0307C454.773 84.0445 454.79 84.0583 454.804 84.0737C454.845 84.1165 454.872 84.1707 454.899 84.2244C454.935 84.2963 454.97 84.3674 455.037 84.4094C455.043 84.4131 455.049 84.4166 455.055 84.4201C455.076 84.4319 455.097 84.4438 455.109 84.4639C455.143 84.521 455.081 84.5878 455.021 84.6176C455.018 84.6191 455.015 84.6207 455.012 84.6222C454.954 84.6508 454.887 84.6838 454.881 84.7467C454.877 84.7922 454.908 84.8299 454.938 84.8663C454.945 84.874 454.951 84.8817 454.957 84.8894C454.991 84.9331 455.01 85.0069 454.963 85.0364C454.945 85.0475 454.924 85.0481 454.902 85.0487C454.893 85.0489 454.883 85.0491 454.874 85.0503C454.827 85.0561 454.783 85.0921 454.778 85.1387C454.772 85.1853 454.814 85.2347 454.861 85.2287C454.723 85.3168 454.585 85.4059 454.467 85.5183C454.457 85.5281 454.447 85.5382 454.437 85.5483C454.404 85.5805 454.371 85.6128 454.333 85.6388C454.252 85.6949 454.154 85.7184 454.057 85.7415C454.047 85.7439 454.037 85.7463 454.027 85.7487C453.818 85.7995 453.677 85.8937 453.522 85.9975C453.448 86.0473 453.37 86.0993 453.28 86.1497C453.261 86.1607 453.226 86.1681 453.189 86.1759C453.133 86.1878 453.072 86.2007 453.053 86.229C453.021 86.2758 453.016 86.3226 453.053 86.3649C453.082 86.3981 453.179 86.4232 453.223 86.4271C453.451 86.4472 453.619 86.364 453.807 86.2712C453.871 86.2396 453.937 86.2068 454.008 86.1767C454.29 86.058 454.605 85.9541 454.896 86.048C454.932 86.0599 454.974 86.0823 454.976 86.1205C454.978 86.1398 454.968 86.158 454.959 86.175C454.922 86.2428 454.879 86.3164 454.806 86.3408C454.736 86.3642 454.664 86.3354 454.593 86.307C454.572 86.2986 454.552 86.2903 454.531 86.2834C454.303 86.2065 454.027 86.3184 453.919 86.5317C453.904 86.5606 453.857 86.5899 453.85 86.5584C453.777 86.6339 453.693 86.7395 453.7 86.8437C453.707 86.9479 453.792 87.0499 453.897 87.0482C453.928 87.0477 453.967 87.0366 454.006 87.0253C454.075 87.0055 454.147 86.9847 454.19 87.0161C454.246 87.0565 454.227 87.1704 454.179 87.2198C454.131 87.2688 454.043 87.289 453.976 87.3044L453.974 87.3047C453.889 87.3242 453.799 87.3422 453.709 87.3603C453.62 87.3781 453.531 87.3959 453.448 87.4151C453.392 87.4279 453.335 87.4415 453.289 87.4754C453.243 87.5094 453.212 87.5697 453.23 87.6238C453.244 87.6673 453.284 87.6936 453.323 87.72C453.359 87.7441 453.396 87.7684 453.414 87.806C453.394 87.8389 453.354 87.8375 453.312 87.836C453.279 87.8348 453.246 87.8336 453.219 87.8491C453.181 87.872 453.155 87.9433 453.172 87.9843C453.189 88.0241 453.282 88.0816 453.322 88.1066L453.326 88.1089C453.438 88.1786 453.552 88.1982 453.67 88.2182C453.761 88.2339 453.854 88.2498 453.95 88.2902C453.996 88.3099 454.041 88.3333 454.086 88.3566C454.17 88.4005 454.254 88.4443 454.347 88.4631C454.442 88.4824 454.539 88.4741 454.636 88.4659C454.704 88.46 454.773 88.4542 454.841 88.458C454.905 88.4616 454.972 88.4758 455.018 88.5201C455.097 88.5965 455.064 88.7518 454.961 88.7903C454.878 88.8215 454.789 88.7823 454.706 88.746C454.699 88.7429 454.692 88.7398 454.685 88.7368C454.596 88.6983 454.48 88.6747 454.413 88.7437C454.394 88.764 454.38 88.7907 454.367 88.817C454.346 88.8574 454.326 88.8968 454.285 88.9106C454.262 88.9183 454.236 88.9157 454.211 88.913C454.181 88.9099 454.151 88.9067 454.126 88.922C454.093 88.9414 454.083 88.9853 454.093 89.0216C454.102 89.0578 454.128 89.0875 454.155 89.1137C454.284 89.2384 454.462 89.311 454.642 89.3113C454.664 89.3113 454.688 89.3104 454.711 89.3094C454.8 89.3058 454.891 89.3021 454.962 89.3523C454.897 89.3676 454.874 89.4528 454.894 89.5163C454.906 89.5559 454.929 89.5907 454.951 89.6256C454.965 89.6466 454.979 89.6677 454.991 89.6899C455.021 89.7489 455.032 89.8291 454.984 89.8754C454.932 89.9256 454.918 90.0106 454.952 90.0742C454.986 90.138 455.064 90.1749 455.135 90.1607C455.119 90.2123 455.096 90.2339 455.065 90.2639C455.039 90.2886 455.008 90.319 454.969 90.3766C454.954 90.3984 454.939 90.4199 454.924 90.4414C454.871 90.5162 454.819 90.5906 454.788 90.6771C454.761 90.7537 454.742 90.8548 454.808 90.9023C454.856 90.9374 454.927 90.9195 454.973 90.8809C455.008 90.8511 455.032 90.812 455.056 90.7729C455.064 90.7611 455.071 90.7492 455.079 90.7376C455.189 90.5705 455.362 90.4561 455.53 90.3465C455.557 90.3288 455.596 90.3119 455.619 90.3345C455.545 90.4691 455.497 90.622 455.51 90.775C455.522 90.9279 455.604 91.0797 455.739 91.153C455.894 91.2366 456.084 91.207 456.254 91.1606C456.284 91.1522 456.319 91.1442 456.345 91.1615C456.359 91.1704 456.367 91.1842 456.375 91.1981C456.379 91.2037 456.382 91.2093 456.386 91.2146C456.442 91.2948 456.566 91.2877 456.655 91.2456C456.745 91.2028 456.822 91.1334 456.873 91.0483L456.875 91.0464C456.882 91.0332 456.891 91.0194 456.904 91.0121C456.931 90.9971 456.966 91.0165 456.982 91.0431C456.993 91.0598 456.998 91.0787 457.003 91.0977C457.006 91.1087 457.009 91.1197 457.013 91.1303C457.035 91.1854 457.079 91.2261 457.124 91.2664C457.134 91.2759 457.145 91.2854 457.155 91.295C457.256 91.3915 457.316 91.519 457.378 91.6497C457.455 91.8132 457.534 91.9817 457.699 92.1005C457.738 92.1283 457.753 92.1561 457.767 92.1825C457.776 92.1993 457.784 92.2155 457.799 92.2308C457.832 92.2667 457.861 92.3 457.889 92.3317C457.959 92.4124 458.02 92.482 458.12 92.5536C458.228 92.6312 458.283 92.7533 458.343 92.886C458.38 92.9682 458.418 93.0544 458.473 93.1367C458.628 93.3723 458.745 93.6302 458.861 93.8882C458.95 94.0851 459.038 94.2821 459.145 94.4694C459.661 95.3788 459.934 96.3261 460.054 97.3195C460.074 97.4829 460.058 97.626 460.041 97.7868C460.039 97.7992 460.038 97.8118 460.037 97.8245C460.026 97.9259 459.983 98.0246 459.94 98.1226C459.912 98.1856 459.885 98.2484 459.866 98.3113C459.836 98.4114 459.827 98.5332 459.817 98.6555C459.806 98.7822 459.796 98.9094 459.764 99.0133C459.742 99.0834 459.72 99.1519 459.697 99.2199C459.629 99.4297 459.562 99.6344 459.518 99.8634C459.277 99.8561 459.037 99.9096 458.818 100.062C458.371 100.382 458.081 100.906 457.822 101.375L457.805 101.406C457.599 101.756 457.424 102.105 457.25 102.453L457.25 102.454C457.147 102.75 456.995 103.016 456.841 103.285C456.782 103.387 456.723 103.49 456.666 103.596C456.699 103.626 456.761 103.623 456.761 103.623C456.839 103.621 456.909 103.634 456.98 103.647C457.05 103.66 457.121 103.673 457.199 103.67C456.971 104.196 456.823 104.777 456.675 105.354L456.675 105.354L456.675 105.354L456.675 105.354L456.675 105.354L456.675 105.354L456.675 105.354C456.636 105.507 456.597 105.66 456.557 105.812C456.363 106.504 456.232 107.225 456.132 107.914L456.133 107.945L471.778 107.15C471.688 107.045 471.554 106.986 471.428 106.931L471.428 106.931C471.372 106.907 471.318 106.883 471.269 106.856C471.158 106.8 471.05 106.747 470.944 106.696L470.944 106.696C470.718 106.586 470.502 106.48 470.286 106.36L470.286 106.36C470.126 106.241 469.966 106.122 469.867 105.97C469.799 105.817 469.701 105.664 469.602 105.512C469.55 105.374 469.507 105.243 469.463 105.112L469.463 105.112C469.42 104.981 469.376 104.85 469.325 104.711C469.304 104.655 469.283 104.601 469.262 104.547L469.262 104.546C469.181 104.334 469.105 104.133 469.047 103.911C469.03 103.856 469.012 103.8 468.995 103.743C468.874 103.351 468.743 102.924 468.383 102.719C468.346 102.695 468.309 102.674 468.272 102.657C468.389 102.484 468.524 102.326 468.682 102.195C468.719 102.164 468.761 102.143 468.801 102.122C468.859 102.092 468.916 102.063 468.958 102.008C469.262 101.607 469.469 101.277 469.489 100.837C469.492 100.768 469.496 100.705 469.5 100.644C469.514 100.418 469.526 100.221 469.495 99.8686C469.491 99.8212 469.531 99.7437 469.557 99.7043C469.579 99.6723 469.635 99.6488 469.683 99.6283C469.704 99.6192 469.724 99.6108 469.739 99.6025C470.059 99.4251 470.476 99.5727 470.742 99.7043C470.752 99.7091 470.836 99.7747 470.838 99.7851C470.841 99.7954 471.056 99.8033 471.052 99.7936C471.068 99.8135 471.078 99.8401 471.088 99.8663C471.103 99.9087 471.119 99.95 471.159 99.9603C471.218 99.9754 471.263 99.909 471.287 99.8534C471.324 99.8611 471.332 99.8983 471.341 99.9374C471.348 99.9683 471.356 100 471.377 100.02C471.408 100.048 471.459 100.041 471.494 100.018C471.514 100.006 471.531 99.99 471.548 99.9741C471.562 99.9613 471.575 99.9485 471.59 99.9376C471.606 99.9258 471.626 99.9158 471.645 99.9217C471.656 99.9248 471.664 99.9325 471.672 99.9403C471.698 99.9663 471.72 99.9961 471.737 100.028C471.739 100.032 471.741 100.036 471.743 100.04C471.757 100.068 471.773 100.097 471.801 100.109C471.844 100.126 471.88 100.095 471.917 100.063C471.948 100.037 471.98 100.011 472.018 100.008C472.061 100.005 472.098 100.037 472.124 100.071C472.143 100.096 472.158 100.123 472.173 100.15C472.189 100.178 472.205 100.206 472.225 100.232C472.263 100.282 472.326 100.322 472.387 100.308C472.394 100.307 472.4 100.305 472.406 100.303C472.42 100.298 472.434 100.294 472.449 100.296C472.467 100.298 472.483 100.311 472.496 100.324C472.523 100.353 472.544 100.387 472.564 100.422C472.576 100.442 472.589 100.463 472.602 100.483C472.639 100.535 472.696 100.582 472.76 100.576C472.773 100.575 472.787 100.572 472.8 100.569C472.82 100.564 472.84 100.559 472.86 100.561C472.9 100.567 472.926 100.601 472.952 100.635C472.975 100.664 472.998 100.695 473.032 100.707C473.072 100.722 473.122 100.704 473.144 100.666C473.181 100.681 473.202 100.718 473.221 100.754C473.225 100.76 473.228 100.766 473.231 100.771C473.254 100.812 473.296 100.853 473.341 100.84C473.357 100.836 473.371 100.824 473.385 100.813C473.401 100.799 473.416 100.786 473.436 100.784C473.464 100.781 473.487 100.799 473.51 100.817C473.535 100.835 473.559 100.853 473.587 100.847C473.62 100.84 473.633 100.804 473.645 100.769C473.658 100.733 473.67 100.698 473.704 100.691C473.708 100.739 473.715 100.79 473.747 100.825C473.78 100.861 473.845 100.869 473.873 100.83C473.879 100.821 473.884 100.81 473.888 100.8C473.895 100.78 473.903 100.762 473.921 100.755C473.948 100.746 473.973 100.772 473.988 100.796C474 100.815 474.01 100.834 474.021 100.854C474.057 100.917 474.093 100.98 474.154 101.016C474.166 101.023 474.18 101.029 474.194 101.029C474.238 101.027 474.253 100.969 474.249 100.926C474.249 100.922 474.248 100.918 474.248 100.915C474.242 100.858 474.235 100.791 474.324 100.781L474.467 100.979C474.42 101.099 474.491 101.117 474.547 101.124C474.578 101.128 474.613 101.119 474.631 101.094C474.652 101.065 474.647 101.024 474.63 100.993C474.62 100.973 474.606 100.956 474.592 100.939C474.584 100.928 474.575 100.918 474.568 100.906C474.535 100.858 474.518 100.8 474.52 100.743C474.582 100.746 474.629 100.801 474.654 100.858C474.658 100.867 474.661 100.876 474.665 100.886C474.676 100.913 474.686 100.941 474.706 100.963C474.732 100.993 474.781 101.008 474.811 100.982C474.831 100.964 474.835 100.934 474.828 100.908C474.823 100.887 474.812 100.868 474.802 100.849C474.799 100.844 474.797 100.84 474.794 100.836C474.773 100.797 474.757 100.756 474.746 100.714C474.743 100.7 474.74 100.682 474.751 100.672C474.757 100.667 474.765 100.665 474.773 100.664C474.91 100.641 475.046 100.705 475.17 100.767C475.222 100.793 475.274 100.819 475.318 100.856C475.361 100.894 475.396 100.945 475.403 101.002C475.404 101.009 475.404 101.017 475.405 101.024C475.406 101.041 475.407 101.058 475.413 101.074C475.422 101.096 475.448 101.115 475.47 101.104C475.481 101.099 475.488 101.087 475.494 101.076C475.521 101.019 475.52 100.951 475.499 100.891C475.471 100.81 475.411 100.745 475.344 100.692C475.299 100.657 475.249 100.627 475.2 100.596C475.177 100.582 475.154 100.568 475.131 100.553C475.109 100.539 475.086 100.523 475.076 100.5C475.065 100.476 475.071 100.442 475.095 100.433C475.127 100.42 475.157 100.452 475.178 100.478C475.222 100.533 475.282 100.581 475.356 100.574C475.401 100.57 475.442 100.539 475.451 100.495C475.462 100.438 475.42 100.395 475.378 100.351C475.338 100.31 475.298 100.269 475.302 100.216C475.302 100.213 475.302 100.209 475.304 100.205C475.313 100.185 475.343 100.195 475.363 100.204C475.425 100.231 475.504 100.214 475.549 100.164C475.555 100.158 475.56 100.15 475.56 100.141C475.56 100.132 475.554 100.124 475.547 100.117C475.505 100.075 475.447 100.049 475.387 100.045C475.362 100.043 475.326 100.035 475.33 100.01C475.333 99.9958 475.346 99.9897 475.36 99.9836C475.366 99.9808 475.372 99.9781 475.378 99.9746C475.406 99.9556 475.404 99.9107 475.383 99.8843C475.362 99.8579 475.327 99.8462 475.294 99.8383C475.251 99.828 475.207 99.8218 475.163 99.8198C475.149 99.8193 475.135 99.8186 475.125 99.8095C475.112 99.7971 475.114 99.7752 475.123 99.7596C475.128 99.751 475.134 99.7435 475.141 99.736C475.146 99.7299 475.152 99.7238 475.156 99.7172C475.184 99.6756 475.174 99.6185 475.149 99.5755C475.132 99.5462 475.109 99.5213 475.086 99.4964C475.075 99.4845 475.064 99.4727 475.054 99.4603C475.041 99.4455 475.029 99.425 475.039 99.4083C475.042 99.4023 475.048 99.398 475.055 99.3946C475.084 99.3792 475.118 99.3825 475.151 99.3858C475.156 99.3863 475.161 99.3867 475.166 99.3871C475.203 99.3904 475.247 99.3867 475.269 99.3564C475.289 99.3297 475.284 99.293 475.278 99.2604C475.358 99.2987 475.433 99.3475 475.499 99.4051L475.502 99.407C475.52 99.4227 475.539 99.4389 475.562 99.4438C475.586 99.4489 475.616 99.4358 475.619 99.4112C475.62 99.4006 475.617 99.3899 475.613 99.3802C475.598 99.3444 475.574 99.3134 475.545 99.2882C475.469 99.2231 475.446 99.1695 475.461 99.0889C475.473 99.023 475.462 98.9635 475.409 98.9165C475.404 98.9125 475.4 98.9087 475.395 98.9049C475.383 98.8949 475.37 98.885 475.362 98.8721C475.349 98.8542 475.346 98.8275 475.361 98.812C475.376 98.7969 475.4 98.7989 475.421 98.8008C475.464 98.8045 475.506 98.8032 475.548 98.7969ZM454.702 107.995L454.732 107.994L454.762 107.962C454.047 103.531 453.501 99.4996 453.653 97.6248C453.894 94.6875 449.482 94.1561 449.482 94.1561C447.802 94.2459 446.664 94.6595 446.099 95.4271C445.561 96.1002 445.743 96.8416 445.743 96.8416C445.746 96.935 446.144 102.093 446.737 108.367L446.768 108.366L446.771 108.397L451.405 108.162L451.406 108.173L454.636 107.998L454.671 107.996L454.702 107.995L454.702 107.995Z" fill="#424C5C"/>
</g>
<path style="mix-blend-mode:multiply" d="M496.464 66.8709L531.069 173.946C518.357 174.953 506.386 175.501 498.6 175.468C461.214 175.308 428.748 172.88 397.321 170.058L370.042 85.6175C369.246 83.1515 364.488 83.7666 363.063 83.8382C364.833 83.3476 366.89 82.8774 369.007 82.4113C378.8 80.3327 390.491 78.973 401.221 78.2281L405.914 78.0975C408.916 78.0137 411.636 76.977 411.583 75.9201L415.135 77.9521C441.856 77.0744 460.631 76.3324 480.54 74.212C488.263 73.3894 496.732 72.1528 496.519 67.9408L496.464 66.8709Z" fill="url(#paint1_linear_1097_15498)"/>
<g style="mix-blend-mode:multiply">
<path d="M543.556 95.2484L545.253 128.693L554.183 139.865L555.791 171.558" stroke="#999B9C" stroke-opacity="0.8" stroke-width="0.4" stroke-miterlimit="3.99149"/>
</g>
<path d="M628.163 111.831L627.328 111.843L627.568 122.827L628.403 122.81" fill="white"/>
<path d="M628.163 111.831L627.328 111.843L627.568 122.827L628.403 122.81" stroke="#000001" stroke-opacity="0.4" stroke-width="0.4" stroke-miterlimit="3.99149"/>
<g style="mix-blend-mode:multiply">
<path d="M619.534 104.543L615.016 149.218" stroke="#999B9C" stroke-opacity="0.37" stroke-width="0.4" stroke-miterlimit="3.99149"/>
</g>
<g style="mix-blend-mode:multiply">
<path d="M627.448 117.336L544.889 121.524" stroke="#999B9C" stroke-opacity="0.8" stroke-width="0.4" stroke-miterlimit="3.99149"/>
</g>
<g style="mix-blend-mode:multiply">
<path d="M576.11 97.533L576.799 111.1C576.892 112.935 575.312 114.173 573.961 114.242L557.929 115.055C556.176 115.144 555.064 113.895 554.988 112.398L554.141 95.7141" stroke="#999B9C" stroke-opacity="0.8" stroke-width="0.4" stroke-miterlimit="3.99149"/>
</g>
<path d="M492.736 61.751C493.147 63.023 491.701 63.9864 488.84 64.7088L487.24 62.9244C490.099 62.2008 491.54 61.2383 491.13 59.9681" stroke="#000001" stroke-opacity="0.4" stroke-width="0.4"/>
<path d="M488.841 64.7088L488.728 62.4805" stroke="#000001" stroke-opacity="0.4" stroke-width="0.4"/>
<g style="mix-blend-mode:multiply">
<path d="M361.392 115.105L337.876 116.298C335.642 116.411 333.339 118.335 333.487 121.156L335.332 156.233C335.481 159.078 337.545 160.787 340.557 160.965L362.152 162.24C365.109 162.415 367.671 160.563 367.514 157.469L365.539 118.536C365.446 116.71 363.943 114.975 361.392 115.105Z" stroke="#999B9C" stroke-opacity="0.8" stroke-width="0.4"/>
</g>
<path d="M339.671 146.933L339.704 147.583" stroke="#776B50" stroke-width="0.4" stroke-linecap="round"/>
<g style="mix-blend-mode:multiply">
<path d="M573.262 113.054C572.941 113.07 572.667 112.822 572.65 112.501C572.634 112.179 572.881 111.905 573.203 111.889C573.525 111.872 573.799 112.12 573.815 112.442C573.832 112.763 573.584 113.037 573.262 113.054Z" stroke="#999B9C" stroke-opacity="0.8" stroke-width="0.4" stroke-linecap="round"/>
</g>
<g style="mix-blend-mode:multiply">
<path d="M574.457 112.409L572.009 112.534" stroke="#999B9C" stroke-opacity="0.8" stroke-width="0.4" stroke-linecap="round"/>
</g>
<g style="mix-blend-mode:multiply">
<path d="M558.502 113.803C558.824 113.787 559.072 113.513 559.055 113.191C559.039 112.869 558.765 112.622 558.443 112.638C558.122 112.654 557.874 112.928 557.89 113.25C557.907 113.572 558.181 113.819 558.502 113.803Z" stroke="#999B9C" stroke-opacity="0.8" stroke-width="0.4" stroke-linecap="round"/>
</g>
<g style="mix-blend-mode:multiply">
<path d="M557.249 113.282L559.698 113.158" stroke="#999B9C" stroke-opacity="0.8" stroke-width="0.4" stroke-linecap="round"/>
</g>
<path d="M5.09791 16.6417L60.6777 13.8219" stroke="black" stroke-opacity="0.3" stroke-width="0.4"/>
<path d="M51.5495 11.7571L53.3344 11.6665C53.764 11.6447 54.13 11.9754 54.1518 12.405C54.1736 12.8347 53.8429 13.2007 53.4133 13.2225L51.6285 13.313C51.1988 13.3348 50.8328 13.0042 50.811 12.5745C50.7892 12.1449 51.1199 11.7789 51.5495 11.7571Z" stroke="black" stroke-opacity="0.3" stroke-width="0.4" stroke-linecap="round"/>
<path d="M52.4824 12.4896L16.3525 14.3227" stroke="black" stroke-opacity="0.3" stroke-width="0.4" stroke-linecap="round"/>
<path d="M362.447 78.4246C359.468 84.6254 353.463 92.7577 343.267 103.566C335.161 102.349 324.091 98.9927 323.893 96.0788" stroke="#000001" stroke-opacity="0.4" stroke-width="0.399999"/>
<path d="M362.299 78.7275C350.932 82.5896 338.451 88.1331 323.923 96.2788" stroke="#000001" stroke-opacity="0.4" stroke-width="0.399999"/>
<path d="M367.964 79.1483C368.061 80.5903 365.938 82.0807 363.073 83.8272C373.925 80.894 388.617 79.0956 401.738 78.2051" stroke="#000001" stroke-opacity="0.4" stroke-width="0.399999"/>
<path opacity="0.96" d="M425.671 120.522C425.219 120.545 424.834 120.197 424.811 119.744C424.788 119.292 425.136 118.907 425.588 118.884C426.041 118.861 426.426 119.209 426.449 119.661C426.472 120.114 426.124 120.499 425.671 120.522Z" fill="#898989" stroke="#530800" stroke-width="0.4" stroke-linejoin="round"/>
<g style="mix-blend-mode:multiply">
<path d="M425.613 119.378L425.646 120.028" stroke="#999B9C" stroke-opacity="0.8" stroke-width="0.4" stroke-linecap="round"/>
</g>
<path d="M628.074 107.634C639.301 110.46 652.073 113.896 658.892 116.188C659.075 116.25 659.189 116.448 659.194 116.655C659.198 116.862 659.093 117.065 658.913 117.134C652.199 119.718 639.586 123.701 628.492 127.008L628.074 107.634Z" fill="#FFD51B" stroke="#000001" stroke-opacity="0.4" stroke-width="0.4" stroke-linecap="round"/>
<path d="M628.069 107.629C639.296 110.454 652.069 113.89 658.887 116.182C659.07 116.244 659.184 116.442 659.189 116.649C659.193 116.856 659.088 117.059 658.908 117.128C652.194 119.712 639.581 123.696 628.487 127.002L628.069 107.629Z" fill="black"/>
<g style="mix-blend-mode:screen" opacity="0.52">
<path d="M629.539 109.315L638.373 111.608L657.561 116.726L638.444 114.381L629.539 113.872C629.539 113.872 629.19 111.741 629.539 109.315Z" fill="white"/>
</g>
<path d="M543.559 95.2463C541.035 95.1544 538.53 95.0839 536.057 95.0368C527.483 81.7851 506.859 69.0874 496.474 66.8617L496.528 67.9321C496.742 72.1441 488.272 73.3805 480.549 74.203C460.64 76.3234 441.864 77.0648 415.143 77.9425L411.592 75.9102C411.646 76.9672 408.925 78.0044 405.924 78.0883L367.963 79.1484L367.798 76.7072C354.865 80.6094 340.193 86.8691 322.952 96.6084L134.402 109.885L82.5115 119.125L83.5615 139.82C83.6016 140.61 84.1902 140.968 84.907 141.035L370.951 167.615C410.873 171.325 450.7 175.253 498.608 175.459C511.084 175.512 535.957 173.987 555.792 171.558L555.911 173.913C573.403 173.025 585.651 169.351 596.436 163.592L601.757 160.427C607.599 156.567 612.787 152.017 617.012 146.99C624.719 137.656 624.085 131.504 627.425 127.787C627.552 127.646 627.638 127.486 627.635 127.327L627.618 126.41L627.253 107.743C627.245 107.351 627.014 106.901 626.222 106.616C609.183 100.792 583.736 97.5054 543.548 95.0168L543.559 95.2463Z" stroke="#000001" stroke-opacity="0.4" stroke-width="0.4"/>
<path d="M133.647 95.0417L134.401 109.886" stroke="#000001" stroke-opacity="0.3" stroke-width="0.4"/>
<path d="M2.46865 10.998L54.25 7.24243" stroke="black" stroke-opacity="0.3" stroke-width="0.4"/>
<path d="M2.58199 13.3444L48.4845 9.92468C50.6405 9.76401 52.7053 8.77488 54.25 7.24243" stroke="black" stroke-opacity="0.3" stroke-width="0.4"/>
<path d="M123.878 78.5178L120.612 81.6973L133.648 95.0419L154.257 93.9963" stroke="#000001" stroke-opacity="0.3" stroke-width="0.4"/>
<path d="M617.012 146.99L607.882 159.458C599.874 163.932 585.91 168.824 577.392 170.913" stroke="#000001" stroke-opacity="0.4" stroke-width="0.4"/>
<path d="M45.9672 132.299L37.9037 130.455L37.8184 109.238" fill="white"/>
<path d="M45.9672 132.299L37.9037 130.455L37.8184 109.238" stroke="#000001" stroke-opacity="0.4" stroke-width="0.4"/>
<path style="mix-blend-mode:multiply" d="M82.3069 140.582C83.1401 140.772 83.5702 139.971 83.5389 139.355L83.5602 139.793C83.6003 140.583 84.1887 140.942 84.9056 141.009L151.4 147.188L143.882 123.942C143.887 128.316 117.656 129.365 82.9525 127.825L83.1156 131.03C80.9961 131.137 79.421 129.595 78.5375 127.619C67.478 127.071 55.6672 126.272 43.6431 125.219L45.9464 132.268L82.3069 140.582Z" fill="url(#paint2_linear_1097_15498)"/>
<path d="M468.555 59.0366C469.511 58.9881 470.247 58.1736 470.198 57.2174C470.15 56.2613 469.335 55.5255 468.379 55.574C468.152 55.5856 467.937 55.6404 467.746 55.7286C467.141 56.8528 467.289 57.9192 467.903 58.9447C468.099 59.0138 468.323 59.0483 468.555 59.0366Z" fill="#D40000" stroke="black" stroke-opacity="0.4" stroke-width="0.4" stroke-linecap="round" stroke-linejoin="round"/>
<path d="M468.379 55.5739C466.578 54.3348 461.621 53.6496 458.007 53.8329C457.265 56.18 456.593 59.6448 458.366 60.905" stroke="#000001" stroke-opacity="0.4" stroke-width="0.4"/>
<path d="M468.555 59.0364C466.354 60.551 463.875 60.6608 459.089 60.8729" stroke="black" stroke-opacity="0.4" stroke-width="0.4"/>
<g style="mix-blend-mode:multiply">
<path d="M485.109 53.4952C486.343 54.4454 485.692 56.1686 480.98 57.5874C475.317 59.2957 465.796 60.5755 459.125 60.8706L399.934 62.2048C399.822 59.984 398.887 57.0316 396.652 58.3308" stroke="#000001" stroke-opacity="0.4" stroke-width="0.4" stroke-miterlimit="3.99149"/>
</g>
<path d="M527.029 163.129C527.05 163.532 526.738 163.859 526.352 163.878L517.363 164.335C516.977 164.354 516.634 164.061 516.614 163.658" stroke="#000001" stroke-opacity="0.4" stroke-width="0.4"/>
<path d="M527.029 163.129L527.159 165.68C527.195 166.386 526.528 167.068 525.875 167.101L518.164 167.492C517.511 167.525 516.779 166.914 516.743 166.209L516.614 163.658L527.029 163.129Z" stroke="#000001" stroke-opacity="0.4" stroke-width="0.4"/>
<path d="M539.1 95.1103L539.173 92.5066" stroke="#000001" stroke-opacity="0.4" stroke-width="0.6" stroke-linecap="round"/>
<path d="M539.094 95.4789C538.777 95.4701 538.522 95.3891 538.525 95.2981C538.527 95.2071 538.786 95.1405 539.103 95.1493C539.42 95.1581 539.674 95.2391 539.672 95.3301C539.669 95.4211 539.41 95.4877 539.094 95.4789Z" fill="#999B9C"/>
<path d="M539.1 95.1103L539.173 92.5066" stroke="#000001" stroke-opacity="0.4" stroke-width="0.6" stroke-linecap="round"/>
<path d="M539.094 95.4789C538.777 95.4701 538.522 95.3891 538.525 95.2981C538.527 95.2071 538.786 95.1405 539.103 95.1493C539.42 95.1581 539.674 95.2391 539.672 95.3301C539.669 95.4211 539.41 95.4877 539.094 95.4789Z" fill="#999B9C"/>
<path d="M541.814 100.899L541.851 99.5212C541.86 99.1697 541.544 98.9617 541.315 98.9553L534.474 98.7549C534.245 98.7481 533.918 98.9387 533.909 99.2902L533.872 100.668" stroke="black" stroke-opacity="0.3" stroke-width="0.6" stroke-linecap="round"/>
<path d="M541.808 101.127C541.603 101.121 541.44 101.014 541.443 100.889C541.447 100.763 541.616 100.666 541.821 100.672C542.025 100.677 542.189 100.784 542.185 100.909C542.182 101.035 542.013 101.132 541.808 101.127Z" stroke="black" stroke-opacity="0.3" stroke-width="0.4" stroke-linecap="round"/>
<path d="M533.866 100.895C533.661 100.89 533.498 100.783 533.501 100.658C533.505 100.532 533.674 100.435 533.879 100.44C534.083 100.446 534.247 100.553 534.243 100.678C534.24 100.804 534.071 100.901 533.866 100.895Z" stroke="black" stroke-opacity="0.3" stroke-width="0.4" stroke-linecap="round"/>
<g style="mix-blend-mode:multiply">
<path style="mix-blend-mode:multiply" d="M505.869 161.494C511.934 161.958 512.918 165.212 512.995 166.737C513.373 174.195 488.702 172.502 488.468 167.894C488.408 166.715 493.038 163.905 497.721 162.392" fill="url(#paint3_linear_1097_15498)"/>
</g>
<path d="M497.854 163.082L474.672 71.5076C474.526 71.0069 481.946 69.266 482.774 70.3176L505.955 161.892C505.924 164.425 498.157 163.927 497.854 163.082Z" fill="url(#paint4_linear_1097_15498)" stroke="#000001" stroke-opacity="0.4" stroke-width="0.4" stroke-miterlimit="3.99149"/>
<g style="mix-blend-mode:multiply">
<path d="M509.38 166.231C507.422 165.487 506.485 163.547 505.939 161.857" stroke="#000001" stroke-opacity="0.4" stroke-width="0.400001"/>
<path d="M497.854 163.082C498.151 164.9 496.756 166.393 494.39 167.452" stroke="#000001" stroke-opacity="0.4" stroke-width="0.400001"/>
<path d="M505.869 161.494C511.934 161.958 512.918 165.212 512.995 166.737C513.373 174.195 488.702 172.502 488.468 167.894C488.408 166.715 493.038 163.905 497.721 162.392" stroke="#000001" stroke-opacity="0.4" stroke-width="0.400001"/>
</g>
<path d="M475.453 74.3546C475.033 72.3874 471.974 71.2763 468.634 70.2563C476.289 70.018 482.615 69.2371 486.703 67.5422C484.83 68.7909 483.236 71.4432 483.509 73.1342C483.767 73.9325 479.588 74.8824 475.453 74.3546Z" fill="#560A03" stroke="#000001" stroke-opacity="0.4" stroke-width="0.4"/>
<path d="M492.861 143.134L492.2 140.408C497.472 141.38 499.698 140.058 500.152 139.275L500.8 141.784C500.341 144.094 495.316 143.646 492.861 143.134Z" fill="white"/>
<path style="mix-blend-mode:multiply" d="M475.453 74.3546C475.033 72.3874 471.974 71.2763 468.634 70.2563C476.289 70.018 482.615 69.2371 486.703 67.5422C484.83 68.7909 483.236 71.4432 483.509 73.1342C483.767 73.9325 479.588 74.8824 475.453 74.3546Z" fill="url(#paint5_linear_1097_15498)"/>
<g style="mix-blend-mode:multiply">
<path d="M500.023 138.456C499.992 140.989 492.224 140.491 491.921 139.646" stroke="#000001" stroke-opacity="0.4" stroke-width="0.4" stroke-miterlimit="3.99149"/>
</g>
<g style="mix-blend-mode:multiply">
<path d="M500.186 139.099C499.965 141.068 493.534 141.144 492.084 140.289" stroke="white" stroke-width="0.4" stroke-miterlimit="3.99149"/>
</g>
<g style="mix-blend-mode:multiply">
<path d="M500.872 141.807C500.841 144.34 493.073 143.842 492.77 142.998" stroke="#000001" stroke-opacity="0.4" stroke-width="0.4" stroke-miterlimit="3.99149"/>
</g>
<g style="mix-blend-mode:multiply">
<path d="M501.034 142.45C500.814 144.419 494.383 144.495 492.933 143.64" stroke="#000001" stroke-opacity="0.4" stroke-width="0.4" stroke-miterlimit="3.99149"/>
</g>
<g style="mix-blend-mode:multiply" opacity="0.37">
<path d="M134 109.773L82.5 118.773L43 49.2726L85.5 110.773L134 109.773Z" fill="#999B9C"/>
</g>
<g style="mix-blend-mode:multiply" opacity="0.37">
<path fill-rule="evenodd" clip-rule="evenodd" d="M536.371 96.3441C532.283 99.293 522.882 105.366 517.977 106.067C515.524 107.497 507.413 110.184 494.59 109.483L481.626 77.4246L405.886 81.2919C401.557 81.5272 386.826 82.9579 362.542 86.7982L357.081 87.7105L361.496 80.1215C353.493 83.4101 334.879 91.4636 324.448 97.3692C324.941 97.7661 326.002 98.5727 326.306 98.6234L135.373 111.466L120.402 113.699L88.0586 119.665L88.0586 128.179C87.8715 130.646 89.61 135.881 98.0605 137.089C106.511 138.296 260.028 152.43 335.73 159.346C362.57 161.915 424.094 167.824 455.473 170.914C476.051 172.941 490.245 173.104 504.517 171.902C508.09 171.602 511.665 171.2 515.356 170.786C525.025 169.701 535.487 168.527 548.776 168.834C586.495 169.705 600.821 156.562 604.675 153.027C604.767 152.942 604.854 152.862 604.935 152.788C608.172 149.838 623.158 129.207 623.409 127.52C623.645 125.934 623.577 115.163 623.177 108.268L621.721 107.38C621.36 107.23 621.011 107.083 620.783 106.94C619.006 106.639 617.109 106.314 615.121 105.975C596.982 102.875 571.384 98.5017 562.023 98.5017C550.67 98.5017 540.191 97.0633 536.371 96.3441ZM622.412 105.47L622.073 105.219L610.934 102.466L598.176 100.285L579.666 98.0122L562.779 96.4348L543.672 94.9596L543.485 95.4152L536.068 94.9596L534.687 92.9792L533.211 93.6117L525.19 98.5017L516.056 102.321L503.656 105.034L495.408 106.067L483.341 74.0896L474.871 74.7538L452.839 76.4145L424.995 77.7441L415.293 78.1335L411.618 76.0043L410.863 77.0002L408.562 77.7441L402.964 78.1335L389.09 79.3355L370.374 82.1515L363.34 83.8834L365.421 82.4267L367.814 80.4497L367.814 79.097L367.814 76.6516L364.329 77.7441L349.397 83.519L331.24 92.2073L322.864 96.6295L134.522 109.775L110.07 114.278L82.5861 119.093L83.4191 139.114L83.8249 140.553L86.2964 141.18L91.7189 141.733L423.908 172.471L460.431 174.548L479.399 175.124L506.138 175.459L520.479 174.706L531.672 173.909L555.745 171.615L555.745 173.909L567.219 172.926L578.459 170.725L591.244 166.791L607.964 159.578L615.603 149.074L618.001 145.828L621.173 141.217L623.645 136.052L625.637 130.851L626.522 129.117L627.666 127.52L627.37 115.985L627.149 107.759L626.854 106.985L622.412 105.47Z" fill="#999B9C"/>
</g>
<path d="M143.883 123.942C143.878 118.055 95.7548 120.826 43.6435 125.219C95.7631 129.669 143.888 129.83 143.883 123.942Z" fill="black" stroke="black" stroke-opacity="0.3" stroke-width="0.4" stroke-miterlimit="3.99149"/>
<path d="M124.135 124.088C124.114 121.207 95.8295 122.385 66.4068 125.113C95.8748 126.968 124.157 126.968 124.135 124.088Z" fill="black" stroke="black" stroke-opacity="0.3" stroke-width="0.4" stroke-miterlimit="3.99149"/>
<path d="M108.637 122.448L108.687 126.337L108.637 122.448Z" fill="black"/>
<path d="M108.637 122.448L108.687 126.337" stroke="black" stroke-opacity="0.3" stroke-width="0.4" stroke-miterlimit="3.99149"/>
<path d="M105.881 122.508C109.428 122.436 109.548 126.317 105.886 126.381L105.881 122.508Z" fill="black"/>
<path d="M105.881 122.508C109.428 122.436 109.548 126.317 105.886 126.381" stroke="black" stroke-opacity="0.3" stroke-width="0.4" stroke-miterlimit="3.99149"/>
<path style="mix-blend-mode:multiply" d="M143.884 123.996C143.879 118.108 95.7559 120.88 43.6445 125.273C95.7641 129.722 143.889 129.884 143.884 123.996Z" fill="url(#paint6_linear_1097_15498)"/>
<path d="M433.173 181.502C430.784 177.256 427.524 171.728 424.895 168.842C424.49 168.397 425.042 167.595 425.703 167.586L435.721 167.444C436.378 167.435 436.806 167.908 436.899 168.509C437.38 171.635 437.968 174.85 438.838 180.315" fill="#999B9C"/>
<path d="M440.319 213.411C431.17 213.875 423.376 206.835 422.912 197.685C422.448 188.536 429.489 180.743 438.638 180.278C447.787 179.814 455.58 186.855 456.045 196.004C456.509 205.154 449.468 212.947 440.319 213.411Z" fill="#1A1A1A" stroke="black" stroke-width="0.4" stroke-miterlimit="3.99149" stroke-linecap="round" stroke-linejoin="round"/>
<path d="M439.882 204.807C435.485 205.03 431.739 201.646 431.516 197.249C431.292 192.851 434.677 189.105 439.074 188.882C443.472 188.659 447.218 192.043 447.441 196.441C447.664 200.838 444.28 204.584 439.882 204.807Z" fill="#B1B3B6" stroke="#000001" stroke-opacity="0.4" stroke-width="0.4" stroke-miterlimit="3.99149" stroke-linecap="round" stroke-linejoin="round"/>
<path d="M439.823 203.636C436.072 203.826 432.877 200.94 432.687 197.189C432.497 193.439 435.383 190.244 439.134 190.054C442.884 189.863 446.079 192.75 446.269 196.5C446.46 200.251 443.573 203.446 439.823 203.636Z" fill="#B1B3B6" stroke="#000001" stroke-opacity="0.4" stroke-width="0.4" stroke-miterlimit="3.99149" stroke-linecap="round" stroke-linejoin="round"/>
<path d="M436.731 190.325C436.568 190.393 436.38 190.317 436.311 190.154C436.243 189.991 436.319 189.803 436.482 189.734C436.645 189.665 436.833 189.742 436.902 189.905C436.97 190.068 436.894 190.256 436.731 190.325Z" fill="#B1B3B6" stroke="#000001" stroke-opacity="0.4" stroke-width="0.4" stroke-miterlimit="3.99149" stroke-linecap="round" stroke-linejoin="round"/>
<path d="M446.498 197.726C446.52 197.55 446.681 197.426 446.856 197.448C447.032 197.47 447.156 197.63 447.134 197.805C447.112 197.981 446.952 198.105 446.776 198.083C446.601 198.061 446.476 197.901 446.498 197.726Z" fill="#B1B3B6" stroke="#000001" stroke-opacity="0.4" stroke-width="0.4" stroke-miterlimit="3.99149" stroke-linecap="round" stroke-linejoin="round"/>
<path d="M435.205 202.484C435.346 202.591 435.374 202.792 435.267 202.933C435.16 203.074 434.959 203.102 434.818 202.995C434.677 202.888 434.65 202.687 434.756 202.546C434.863 202.405 435.064 202.377 435.205 202.484Z" fill="#B1B3B6" stroke="#000001" stroke-opacity="0.4" stroke-width="0.4" stroke-miterlimit="3.99149" stroke-linecap="round" stroke-linejoin="round"/>
<path opacity="0.96" d="M437.091 198.389L439.622 199.684L442.01 198.14L441.865 195.3L439.334 194.005L436.947 195.55L437.091 198.389Z" fill="#B1B3B6" stroke="#919496" stroke-width="0.4" stroke-miterlimit="3.99149" stroke-linecap="round" stroke-linejoin="round"/>
<path opacity="0.96" d="M439.569 198.627C438.585 198.677 437.746 197.919 437.696 196.935C437.646 195.951 438.404 195.112 439.388 195.062C440.372 195.012 441.211 195.77 441.261 196.754C441.311 197.739 440.553 198.577 439.569 198.627Z" fill="#C6CFDE" stroke="#919496" stroke-width="0.4" stroke-miterlimit="3.99149" stroke-linecap="round" stroke-linejoin="round"/>
<path d="M429.289 177.879L432.589 179.661L438.252 179.373L447.326 176.963" fill="#828588"/>
<path d="M447.326 176.963L447.298 176.418L429.261 177.333L429.289 177.879L447.326 176.963Z" fill="#828588"/>
<path d="M437.25 178.839C437.035 178.85 436.853 178.685 436.842 178.47C436.831 178.256 436.996 178.073 437.21 178.062C437.425 178.051 437.607 178.216 437.618 178.431C437.629 178.645 437.464 178.828 437.25 178.839Z" stroke="#000001" stroke-opacity="0.4" stroke-width="0.4" stroke-linecap="round"/>
<path d="M433.531 179.027C433.317 179.038 433.134 178.873 433.123 178.659C433.113 178.444 433.278 178.262 433.492 178.251C433.707 178.24 433.889 178.405 433.9 178.619C433.911 178.834 433.746 179.017 433.531 179.027Z" stroke="#000001" stroke-opacity="0.4" stroke-width="0.4" stroke-linecap="round"/>
<path style="mix-blend-mode:screen" opacity="0.59" d="M339.431 108.24C339.431 108.24 328.754 116.474 327.417 140.82C327.417 140.82 328.11 150.574 326.354 146.773C324.615 142.971 325.178 124.067 315.306 124.65C305.418 125.232 227.349 123.131 171.023 124.65C160.762 124.926 146.542 126.514 145.366 123.602C143.561 120.852 305.437 117.149 311.539 116.716C317.64 116.284 317.986 117.567 325.195 112.915C332.403 108.263 339.017 103.007 339.017 103.007C340.666 103.343 341.618 103.507 343.352 103.773L339.431 108.24Z" fill="url(#paint7_linear_1097_15498)" fill-opacity="0.5"/>
<path opacity="0.96" d="M339.902 148.452C339.45 148.475 339.065 148.127 339.042 147.675C339.019 147.223 339.367 146.837 339.819 146.814C340.271 146.791 340.657 147.139 340.68 147.592C340.703 148.044 340.355 148.43 339.902 148.452Z" fill="#898989" stroke="#776B50" stroke-width="0.4" stroke-linejoin="round"/>
<g style="mix-blend-mode:multiply">
<path d="M339.844 147.308L339.877 147.959" stroke="#999B9C" stroke-opacity="0.8" stroke-width="0.4" stroke-linecap="round"/>
</g>
<path d="M346.686 141.802L342.581 142.01C342.26 142.027 342.014 142.299 342.03 142.621L342.131 144.619C342.148 144.94 342.42 145.186 342.742 145.17L346.846 144.962C347.168 144.946 347.414 144.673 347.397 144.351L347.296 142.354C347.28 142.032 347.007 141.786 346.686 141.802Z" fill="white" fill-opacity="0.3" stroke="#776B50" stroke-width="0.31745" stroke-miterlimit="3.99149" stroke-linecap="round" stroke-linejoin="round"/>
<g style="mix-blend-mode:multiply">
<path d="M345.865 145.012C346.187 144.995 346.433 144.723 346.417 144.401L346.316 142.404C346.299 142.082 346.027 141.836 345.705 141.852" stroke="#776B50" stroke-width="0.31745" stroke-miterlimit="3.99149" stroke-linecap="round" stroke-linejoin="round"/>
</g>
<path d="M345.865 145.012C346.187 144.995 346.433 144.723 346.417 144.401L346.316 142.404C346.299 142.082 346.027 141.836 345.705 141.852M346.685 141.802L342.581 142.011C342.259 142.027 342.013 142.299 342.03 142.621L342.131 144.619C342.147 144.941 342.42 145.187 342.741 145.17L346.846 144.962C347.167 144.946 347.413 144.673 347.397 144.351L347.296 142.354C347.279 142.032 347.007 141.786 346.685 141.802Z" stroke="#776B50" stroke-width="0.4" stroke-miterlimit="3.99149" stroke-linecap="round" stroke-linejoin="round"/>
<g clip-path="url(#clip1_1097_15498)">
<path d="M640.267 123.488L635.586 125.153L635.217 195.814C635.217 195.814 634.665 197.849 636.507 194.704C638.349 191.574 640.267 123.488 640.267 123.488Z" fill="#B6B8BA"/>
<path d="M635.233 196.599C635.417 196.599 635.724 196.321 636.63 194.779C638.456 191.65 640.329 126.277 640.421 123.486L640.421 123.286L635.463 125.043L635.463 125.136L635.095 195.782C634.911 196.46 635.095 196.552 635.156 196.568C635.187 196.568 635.202 196.583 635.233 196.583L635.233 196.599ZM640.129 123.686C640.006 127.803 638.134 191.649 636.384 194.641C635.709 195.797 635.402 196.152 635.279 196.275C635.279 196.167 635.31 196.013 635.356 195.859L635.356 195.828L635.724 125.259L640.129 123.702L640.129 123.686Z" fill="#717475"/>
<g style="mix-blend-mode:multiply">
<path d="M635.402 177.035C636.062 166.797 637.09 156.59 638.349 146.414C638.886 142.113 639.423 137.811 639.961 133.509C640.16 127.45 640.268 123.488 640.268 123.488L635.586 125.153L635.31 178.607C635.341 178.083 635.371 177.559 635.402 177.035Z" fill="#B6B8BA"/>
</g>
<g style="mix-blend-mode:screen">
<path d="M636.415 193.501L636.431 193.316L636.415 193.717L636.415 193.501Z" fill="#B6B8BA"/>
</g>
<g style="mix-blend-mode:screen">
<path d="M639.378 126.185L636.431 193.316L637.797 126.663L639.378 126.185Z" fill="#B6B8BA"/>
</g>
<path d="M640.268 111.215L635.586 109.55L635.218 38.8886C635.218 38.8886 634.665 36.8534 636.507 39.9987C638.349 43.1286 640.268 111.215 640.268 111.215Z" fill="#B6B8BA"/>
<path d="M640.421 111.416L640.421 111.215C640.329 108.44 638.472 43.067 636.63 39.9217C635.571 38.1178 635.325 38.0407 635.141 38.1178C635.08 38.1486 634.895 38.2257 635.08 38.9041L635.448 109.658L640.421 111.416ZM635.279 38.4261C635.402 38.5495 635.709 38.9041 636.384 40.0605C638.134 43.0516 640.006 106.883 640.129 111.015L635.724 109.457L635.356 38.8733C635.31 38.7037 635.294 38.5341 635.279 38.4416L635.279 38.4261Z" fill="#717475"/>
<g style="mix-blend-mode:multiply">
<path d="M635.402 57.6674C636.062 67.905 637.09 78.1118 638.349 88.2878C638.886 92.5894 639.423 96.8911 639.961 101.193C640.16 107.252 640.268 111.215 640.268 111.215L635.586 109.549L635.31 56.0947C635.341 56.6189 635.371 57.1432 635.402 57.6674Z" fill="#B6B8BA"/>
</g>
<g style="mix-blend-mode:screen">
<path d="M637.796 108.038L636.43 41.3704L639.376 108.516L637.796 108.038Z" fill="#B6B8BA"/>
</g>
<g style="mix-blend-mode:screen">
<path d="M636.414 40.9855L636.429 41.3709L636.414 41.2013L636.414 40.9855Z" fill="#B6B8BA"/>
</g>
</g>
<defs>
<linearGradient id="paint0_linear_1097_15498" x1="331.832" y1="175.561" x2="331.832" y2="130.447" gradientUnits="userSpaceOnUse">
<stop stop-color="#560A03"/>
<stop offset="1" stop-color="#F82619"/>
</linearGradient>
<linearGradient id="paint1_linear_1097_15498" x1="449.206" y1="130.589" x2="446.475" y2="76.7481" gradientUnits="userSpaceOnUse">
<stop stop-color="#F9F9F9" stop-opacity="0"/>
<stop offset="1" stop-opacity="0.592742"/>
</linearGradient>
<linearGradient id="paint2_linear_1097_15498" x1="115.237" y1="149.273" x2="113.836" y2="121.658" gradientUnits="userSpaceOnUse">
<stop stop-color="#F9F9F9" stop-opacity="0"/>
<stop offset="1" stop-opacity="0.592742"/>
</linearGradient>
<linearGradient id="paint3_linear_1097_15498" x1="503.101" y1="172.009" x2="502.691" y2="163.927" gradientUnits="userSpaceOnUse">
<stop stop-opacity="0"/>
<stop offset="1" stop-opacity="0.0604839"/>
</linearGradient>
<linearGradient id="paint4_linear_1097_15498" x1="492.724" y1="164.225" x2="487.926" y2="69.6427" gradientUnits="userSpaceOnUse">
<stop stop-color="#8C130A"/>
<stop offset="1" stop-color="#560A03"/>
</linearGradient>
<linearGradient id="paint5_linear_1097_15498" x1="480.285" y1="68.627" x2="480.581" y2="74.4719" gradientUnits="userSpaceOnUse">
<stop stop-opacity="0.475806"/>
<stop offset="1" stop-opacity="0.233871"/>
</linearGradient>
<linearGradient id="paint6_linear_1097_15498" x1="113.129" y1="125.757" x2="113.114" y2="123.462" gradientUnits="userSpaceOnUse">
<stop stop-opacity="0.33871"/>
<stop offset="1" stop-opacity="0"/>
</linearGradient>
<linearGradient id="paint7_linear_1097_15498" x1="260.763" y1="142.308" x2="270.688" y2="89.2966" gradientUnits="userSpaceOnUse">
<stop offset="0.17" stop-color="white"/>
<stop offset="1" stop-color="white"/>
</linearGradient>
<clipPath id="clip0_1097_15498">
<rect width="32.1876" height="26.2418" fill="white" transform="matrix(-0.999391 0.0348995 0.0348995 0.999391 477.367 81.0708)"/>
</clipPath>
<clipPath id="clip1_1097_15498">
<rect width="5.42" height="158" fill="white" transform="translate(635 38.3)"/>
</clipPath>
</defs>
</svg>
