<svg width="275" height="82" viewBox="0 0 275 82" fill="none" xmlns="http://www.w3.org/2000/svg">
<g clip-path="url(#clip0_1147_76177)">
<path d="M163.526 39.0757H230.478C234.219 31.8056 226.885 46.0538 250.603 0H230.38C228.04 0 225.866 1.21293 224.632 3.20452C221.974 7.51216 220.394 10.265 217.624 13.6442C210.657 22.3393 200.421 29.2475 188.652 32.3821L163.526 39.0732V39.0757Z" fill="#0A081C"/>
<path d="M269.715 12.4141L225.195 8.75039L229.26 6.51172L259.905 9.02492C263.408 9.31193 266.783 10.4774 269.717 12.4141H269.715Z" fill="#0A081C"/>
<path d="M0.346617 61.0541C0.406447 61.3835 0.488696 61.7454 0.610847 62.1223C1.68029 65.3542 5.85338 70.0213 25.1457 71.8432C34.9926 72.7716 122.994 72.4895 172.609 72.3847C190.608 72.3423 208.382 68.8483 224.997 62.1223C228.799 60.5824 232.541 58.8753 236.208 57.0035L243.813 53.3573C244.22 53.1601 244.596 52.928 244.93 52.6609C247.999 50.2351 247.839 45.2511 244.23 43.1397L235.759 41.515L178.158 37.719H61.2127C52.7818 37.719 45.9712 38.7597 40.5692 40.2097C28.0674 43.5615 23.114 49.117 23.114 49.117C23.114 49.117 22.6753 49.2593 21.915 49.5188C20.2223 50.0953 16.9517 51.2509 13.4541 52.6609C7.05992 55.239 -0.0796668 58.6832 0.344122 61.0541H0.346617Z" fill="#0A081C"/>
<path d="M23.1249 49.1191H64.7534L63.4397 47.8038C58.5586 42.9172 51.9301 40.1793 45.0248 40.2018C43.5839 40.2068 42.0832 40.2068 40.58 40.2118C39.8521 40.4089 39.1541 40.6111 38.476 40.8157C37.7257 41.0503 37.0027 41.2874 36.3172 41.5295C35.8784 41.6843 35.4571 41.8415 35.0458 41.9962C34.0537 42.3756 33.1338 42.7599 32.2787 43.1493C25.8297 46.0842 23.1249 49.1166 23.1249 49.1166V49.1191Z" fill="#0A081C"/>
<path d="M46.7586 39.1782H49.2988V54.4421H46.7586V39.1782Z" fill="#0A081C"/>
<path d="M3.37369 57.5334C6.42995 59.9517 12.5774 62.3476 25.1539 63.5381C35.0008 64.4665 123.002 64.1845 172.618 64.0797C194.734 64.0298 216.52 58.7638 236.216 48.6985L243.822 45.0522C244.41 44.7702 244.911 44.4058 245.342 43.989C248.134 46.6719 247.563 51.5611 243.822 53.358L236.216 57.0043C216.52 67.0696 194.734 72.3356 172.618 72.3855C123.002 72.4903 35.0008 72.7748 25.1539 71.8439C3.60552 69.8049 0.920699 64.2244 0.352323 61.0548C0.16785 60.0291 1.39933 58.8037 3.37369 57.5334Z" fill="#0A081C"/>
<path d="M148.678 43.9055C149.448 43.9055 150.076 44.5319 150.076 45.3031V49.2713C150.076 50.0425 149.45 50.6715 148.678 50.6715H146.339C145.569 50.6715 144.941 50.0425 144.941 49.2713V45.3031C144.941 44.5319 145.567 43.9055 146.339 43.9055H148.678Z" fill="#0A081C"/>
<path d="M139.379 43.9055C140.149 43.9055 140.777 44.5319 140.777 45.3031V49.2713C140.777 50.0425 140.152 50.6715 139.379 50.6715H137.041C136.27 50.6715 135.642 50.0425 135.642 49.2713V45.3031C135.642 44.5319 136.268 43.9055 137.041 43.9055H139.379Z" fill="#0A081C"/>
<path d="M130.073 43.9055C130.843 43.9055 131.472 44.5319 131.472 45.3031V49.2713C131.472 50.0425 130.846 50.6715 130.073 50.6715H127.735C126.965 50.6715 126.336 50.0425 126.336 49.2713V45.3031C126.336 44.5319 126.962 43.9055 127.735 43.9055H130.073Z" fill="#0A081C"/>
<path d="M120.774 43.9055C121.545 43.9055 122.173 44.5319 122.173 45.3031V49.2713C122.173 50.0425 121.547 50.6715 120.774 50.6715H118.436C117.666 50.6715 117.038 50.0425 117.038 49.2713V45.3031C117.038 44.5319 117.663 43.9055 118.436 43.9055H120.774Z" fill="#0A081C"/>
<path d="M111.476 43.9055C112.246 43.9055 112.874 44.5319 112.874 45.3031V49.2713C112.874 50.0425 112.248 50.6715 111.476 50.6715H109.137C108.367 50.6715 107.739 50.0425 107.739 49.2713V45.3031C107.739 44.5319 108.364 43.9055 109.137 43.9055H111.476Z" fill="#0A081C"/>
<path d="M102.177 43.9055C102.947 43.9055 103.576 44.5319 103.576 45.3031V49.2713C103.576 50.0425 102.95 50.6715 102.177 50.6715H99.8389C99.0686 50.6715 98.4404 50.0425 98.4404 49.2713V45.3031C98.4404 44.5319 99.0661 43.9055 99.8389 43.9055H102.177Z" fill="#0A081C"/>
<path d="M92.871 43.9055C93.6413 43.9055 94.2695 44.5319 94.2695 45.3031V49.2713C94.2695 50.0425 93.6438 50.6715 92.871 50.6715H90.5327C89.7624 50.6715 89.1342 50.0425 89.1342 49.2713V45.3031C89.1342 44.5319 89.7599 43.9055 90.5327 43.9055H92.871Z" fill="#0A081C"/>
<path d="M83.5727 43.9055C84.343 43.9055 84.9712 44.5319 84.9712 45.3031V49.2713C84.9712 50.0425 84.3455 50.6715 83.5727 50.6715H81.2344C80.4641 50.6715 79.8359 50.0425 79.8359 49.2713V45.3031C79.8359 44.5319 80.4616 43.9055 81.2344 43.9055H83.5727Z" fill="#0A081C"/>
<path d="M148.678 43.3633C149.448 43.3633 150.076 43.9897 150.076 44.7609V48.7291C150.076 49.5003 149.45 50.1292 148.678 50.1292H146.339C145.569 50.1292 144.941 49.5003 144.941 48.7291V44.7609C144.941 43.9897 145.567 43.3633 146.339 43.3633H148.678Z" fill="#0A081C"/>
<path d="M139.379 43.3633C140.149 43.3633 140.777 43.9897 140.777 44.7609V48.7291C140.777 49.5003 140.152 50.1292 139.379 50.1292H137.041C136.27 50.1292 135.642 49.5003 135.642 48.7291V44.7609C135.642 43.9897 136.268 43.3633 137.041 43.3633H139.379Z" fill="#0A081C"/>
<path d="M130.073 43.3633C130.843 43.3633 131.472 43.9897 131.472 44.7609V48.7291C131.472 49.5003 130.846 50.1292 130.073 50.1292H127.735C126.965 50.1292 126.336 49.5003 126.336 48.7291V44.7609C126.336 43.9897 126.962 43.3633 127.735 43.3633H130.073Z" fill="#0A081C"/>
<path d="M120.774 43.3633C121.545 43.3633 122.173 43.9897 122.173 44.7609V48.7291C122.173 49.5003 121.547 50.1292 120.774 50.1292H118.436C117.666 50.1292 117.038 49.5003 117.038 48.7291V44.7609C117.038 43.9897 117.663 43.3633 118.436 43.3633H120.774Z" fill="#0A081C"/>
<path d="M111.476 43.3633C112.246 43.3633 112.874 43.9897 112.874 44.7609V48.7291C112.874 49.5003 112.248 50.1292 111.476 50.1292H109.137C108.367 50.1292 107.739 49.5003 107.739 48.7291V44.7609C107.739 43.9897 108.364 43.3633 109.137 43.3633H111.476Z" fill="#0A081C"/>
<path d="M102.177 43.3633C102.947 43.3633 103.576 43.9897 103.576 44.7609V48.7291C103.576 49.5003 102.95 50.1292 102.177 50.1292H99.8389C99.0686 50.1292 98.4404 49.5003 98.4404 48.7291V44.7609C98.4404 43.9897 99.0661 43.3633 99.8389 43.3633H102.177Z" fill="#0A081C"/>
<path d="M92.871 43.3633C93.6413 43.3633 94.2695 43.9897 94.2695 44.7609V48.7291C94.2695 49.5003 93.6438 50.1292 92.871 50.1292H90.5327C89.7624 50.1292 89.1342 49.5003 89.1342 48.7291V44.7609C89.1342 43.9897 89.7599 43.3633 90.5327 43.3633H92.871Z" fill="#0A081C"/>
<path d="M83.5727 43.3633C84.343 43.3633 84.9712 43.9897 84.9712 44.7609V48.7291C84.9712 49.5003 84.3455 50.1292 83.5727 50.1292H81.2344C80.4641 50.1292 79.8359 49.5003 79.8359 48.7291V44.7609C79.8359 43.9897 80.4616 43.3633 81.2344 43.3633H83.5727Z" fill="#0A081C"/>
<path d="M265.243 78.3562L190.023 68.79H84.5147V72.5087L263.615 81.8153L265.243 78.3562Z" fill="#0A081C"/>
<path d="M274.998 79.9831V64.9238H271.137L263.613 81.815L274.998 79.9831Z" fill="#0A081C"/>
<path d="M84.5131 68.79L264.444 79.9534L263.614 81.8153L84.5131 72.5087V68.79Z" fill="#0A081C"/>
<path d="M269.717 12.4145V13.9419L225.195 10.1758V8.75073L269.717 12.4145Z" fill="#0A081C"/>
<path d="M0.350547 61.055C0.410376 61.3845 0.492625 61.7463 0.614776 62.1232H225.001C228.803 60.5833 232.544 58.8762 236.212 57.0044L243.817 53.3582C244.224 53.161 244.6 52.9289 244.934 52.6619H13.4581C7.06385 55.24 -0.075737 58.6841 0.348052 61.055H0.350547Z" fill="#0A081C"/>
<path d="M233.355 40.3501H236.61C236.807 40.3501 236.967 40.5099 236.967 40.707V53.7422C236.967 53.9393 236.807 54.0991 236.61 54.0991H233.355C233.158 54.0991 232.998 53.9393 232.998 53.7422V40.707C232.998 40.5099 233.158 40.3501 233.355 40.3501Z" fill="#0A081C"/>
<path d="M168.806 57.7991C191.052 59.5112 213.421 58.7075 235.485 55.3982L235.757 55.3583V39.0761L233.149 38.7067C212.628 35.7942 191.857 35.0455 171.179 36.4706L168.806 36.6353V57.8016V57.7991Z" fill="#0A081C"/>
<path d="M235.485 47.9711L235.757 47.9312V55.361L235.485 55.4009C213.421 58.7102 191.052 59.5163 168.806 57.8018V50.372C191.052 52.0841 213.421 51.2804 235.485 47.9711Z" fill="#0A081C"/>
<path opacity="0.3" d="M235.559 29.1996L220.013 10.4841C220.589 9.66053 221.135 8.83195 221.686 7.96094L237.005 26.3919C236.464 27.4426 235.985 28.371 235.559 29.1996Z" fill="#0A081C"/>
<path opacity="0.3" d="M232.199 35.7312L215.716 15.8901C216.376 15.1564 217.015 14.4077 217.625 13.6465L233.642 32.9285C232.824 34.5133 232.436 35.2695 232.199 35.7312Z" fill="#0A081C"/>
<path opacity="0.3" d="M36.3186 41.5322L41.0526 49.1192H43.6602L38.4775 40.8159C37.7271 41.0505 37.0042 41.2876 36.3186 41.5297V41.5322Z" fill="#0A081C"/>
<path opacity="0.3" d="M32.2759 43.1525L36.0002 49.1198H39.4902L35.0454 41.9995C34.0533 42.3789 33.1334 42.7632 32.2783 43.1525H32.2759Z" fill="#0A081C"/>
</g>
<defs>
<clipPath id="clip0_1147_76177">
<rect width="274.665" height="81.8151" fill="white" transform="matrix(-1 0 0 1 274.998 0)"/>
</clipPath>
</defs>
</svg>
