<svg width="150" height="313" viewBox="0 0 150 313" fill="none" xmlns="http://www.w3.org/2000/svg">
<g clip-path="url(#clip0_1147_76215)">
<path d="M39.6182 162.767C38.4869 157.222 37.6023 151.638 36.9643 146.014C36.7227 143.873 36.3936 141.661 36.3681 139.508C34.2156 140.397 32.006 142.637 30.2602 144.187C19.3195 153.965 11.3547 164.27 5.75849 177.927C5.11438 179.489 4.51715 181.067 3.9668 182.664C3.41645 184.261 2.914 185.873 2.46047 187.499C2.00593 189.126 1.6003 190.765 1.24359 192.416C0.886883 194.067 0.580114 195.727 0.322266 197.395C5.07463 195.105 9.68329 192.509 14.3704 190.088C21.8939 186.201 29.4755 182.417 36.9633 178.459L42.7562 175.534C42.8143 174.816 39.9922 164.539 39.6182 162.767Z" fill="#8D0726"/>
<path d="M120.448 144.455C118.495 142.753 116.431 141.185 114.362 139.628C113.615 142.51 113.62 145.752 113.144 148.713C112.057 155.666 110.621 162.548 108.836 169.357C108.447 170.839 107.661 172.724 107.567 174.22C109.437 175.156 111.283 176.134 113.108 177.154C114.082 177.873 115.362 178.43 116.429 179.014C118.79 180.276 121.134 181.569 123.461 182.894L139.456 191.923C143.043 193.956 146.587 196.06 150.223 198.007C146.813 177.627 136.449 157.766 120.449 144.454L120.448 144.455Z" fill="#8D0726"/>
<path d="M110.761 63.7439H39.9811C39.9811 63.7439 27.9142 129.052 43.4616 179.08H107.282C122.829 129.052 110.762 63.7439 110.762 63.7439H110.761Z" fill="#220E10"/>
<path d="M43.4632 179.079C46.2506 178.803 49.1746 178.986 51.9763 178.982C57.3065 178.982 62.6357 178.956 67.9649 178.901C68.0821 181.359 67.9048 183.829 68.0332 186.282C60.7014 186.291 53.3624 186.356 46.0315 186.264C45.3741 186.266 44.4141 186.417 43.8209 186.135C43.3389 185.608 43.1585 185.068 43.0392 184.367C42.8089 183.01 42.6632 180.222 43.4622 179.079H43.4632Z" fill="#220E10"/>
<path d="M68.0317 186.277C68.3395 187.91 68.1611 189.667 68.3171 191.331C68.4506 193.6 68.7716 195.989 68.738 198.255C63.1621 198.121 57.5567 198.233 51.9778 198.229C50.0353 198.229 48.0785 198.279 46.14 198.127C45.9586 195.849 46.0504 193.496 46.03 191.207V186.259C53.3618 186.351 60.6998 186.286 68.0317 186.277Z" fill="#220E10"/>
<path d="M82.7562 178.862L93.3096 178.87L102.306 178.886C103.648 178.889 105.036 178.975 106.374 178.897C106.857 179.208 107.05 179.442 107.166 180.013C107.414 181.233 107.644 184.817 106.861 185.811C106.564 186.19 106.182 186.293 105.717 186.309C105.141 186.328 104.561 186.3 103.985 186.301L103.968 190.345C103.914 192.983 103.892 195.622 103.901 198.262L97.8215 198.28L81.6168 198.394C81.4568 196.63 82.106 192.401 82.4168 190.528C82.587 189.125 82.6003 187.696 82.6553 186.285C82.6288 183.819 82.5595 181.321 82.7562 178.862Z" fill="#220E10"/>
<path d="M82.7567 178.862L93.3101 178.87L102.306 178.886C103.649 178.889 105.037 178.975 106.375 178.897C106.858 179.208 107.05 179.442 107.167 180.013C107.414 181.233 107.645 184.817 106.862 185.811C106.564 186.19 106.182 186.293 105.717 186.309C105.142 186.328 104.562 186.3 103.986 186.301L82.6558 186.286C82.6293 183.82 82.56 181.322 82.7567 178.863V178.862Z" fill="#220E10"/>
<path d="M82.5322 7.84204C80.5815 5.36955 78.5748 2.86037 76.2582 0.718088C75.9351 0.409281 75.6141 0.112704 75.2635 -0.165527C72.4231 2.19791 70.0892 5.03934 67.7716 7.89708C62.3364 14.6022 57.6187 21.5783 53.3066 29.057C60.3644 28.9428 67.4231 28.9153 74.4818 28.9734C78.8061 29.0019 83.1457 29.1364 87.468 29.0712L87.5251 29.1059C89.4472 29.0396 95.125 29.4381 96.508 28.9224C92.2693 21.5518 87.8054 14.5278 82.5332 7.84306L82.5322 7.84204Z" fill="#220E10"/>
<path d="M96.5059 28.9192C99.7408 34.8477 103.122 40.7894 105.468 47.1408L93.2314 47.0899C87.8277 47.098 82.3976 47.2315 76.9971 47.095C66.3397 47.2784 55.6487 47.1164 44.9902 47.0134C46.4293 43.6777 47.6788 40.2635 49.2279 36.9726C50.4907 34.2882 52.0051 31.7219 53.3056 29.0547C60.3633 28.9406 67.422 28.9131 74.4808 28.9712C78.8051 28.9997 83.1447 29.1342 87.467 29.069L87.524 29.1037C89.4462 29.0374 95.1239 29.4359 96.507 28.9202L96.5059 28.9192Z" fill="#220E10"/>
<g filter="url(#filter0_f_1147_76215)">
<path d="M45.9682 196.368C53.0026 196.374 60.0704 196.232 67.1009 196.4L67.318 198.642C68.6288 209.388 70.8519 219.046 75.5912 228.845C79.4913 219.288 81.2737 208.634 83.0046 198.514L83.3375 196.567L103.77 196.423C104.302 200.914 105.239 205.374 105.836 209.86C108.321 228.551 107.085 249.353 95.2088 264.848C96.0055 257.923 95.868 251.423 93.9777 244.665C93.0499 248.92 92.3097 253.201 91.2482 257.428C90.9514 258.6 90.6314 259.765 90.2896 260.924C89.9465 262.083 89.5815 263.234 89.1934 264.379C88.8054 265.524 88.3941 266.66 87.9611 267.788C87.528 268.917 87.0731 270.036 86.5964 271.146C86.1196 272.257 85.6197 273.357 85.0993 274.448C84.5788 275.539 84.0365 276.618 83.4737 277.687C82.9108 278.756 82.3261 279.814 81.7222 280.86C81.1169 281.906 80.4924 282.94 79.846 283.961C78.354 286.35 76.9058 288.924 75.1414 291.116C73.6829 289.24 72.4801 287.114 71.2631 285.076C66.0613 276.362 61.4852 266.845 58.766 257.036C57.6763 253.107 57.1186 249.06 56.1908 245.091C54.0486 253.004 54.3198 256.981 54.907 264.9C54.7747 264.712 54.6462 264.526 54.5228 264.333C41.9422 244.462 40.9257 218.769 45.9682 196.368Z" fill="#F3CF5D"/>
</g>
<path d="M75.5625 130.929C76.971 133.668 77.9249 136.753 78.7677 139.711C81.8497 150.53 82.8526 161.418 82.8301 172.622C82.8261 174.676 82.9106 176.813 82.7568 178.858C82.5601 181.317 82.6294 183.815 82.6558 186.281C82.6008 187.693 82.5876 189.122 82.4174 190.524C82.1055 192.397 81.4573 196.625 81.6173 198.39L81.3534 199.934C79.9805 207.96 78.5659 216.411 75.4738 223.989C71.7151 216.218 69.952 208.557 68.9124 200.036L68.7402 198.258C68.7738 195.992 68.4528 193.603 68.3193 191.333C68.1623 189.67 68.3407 187.913 68.0339 186.279C67.9055 183.826 68.0818 181.357 67.9656 178.898C67.9809 174.218 67.8372 169.482 68.0696 164.811C68.1613 162.872 68.303 160.937 68.4956 159.005C68.6882 157.074 68.9318 155.15 69.2243 153.231C69.5178 151.313 69.8613 149.403 70.2536 147.502C70.647 145.601 71.0894 143.713 71.5816 141.836C72.5213 138.124 73.5578 134.219 75.5625 130.929Z" fill="#8D0726"/>
<path d="M74.4815 71.8578C79.1727 71.7457 83.9515 73.2122 87.5145 76.3339C91.1968 79.5596 93.4777 83.8462 93.8008 88.7433C94.1381 93.8748 92.5859 98.5935 89.1656 102.445C85.6597 106.392 81.2793 108.256 76.0734 108.579C71.5035 108.847 66.5799 106.843 63.1769 103.86C59.3836 100.534 57.2678 96.2658 56.9722 91.2341C56.696 86.5388 58.4143 81.4981 61.5829 78.0013C61.7888 77.7761 61.9998 77.5549 62.2158 77.3399C62.4319 77.1248 62.6531 76.9149 62.8803 76.71C63.1066 76.5052 63.3379 76.3064 63.5744 76.1128C63.8108 75.9191 64.0513 75.7316 64.2959 75.5492C64.5416 75.3668 64.7902 75.1915 65.044 75.0213C65.2978 74.8511 65.5556 74.688 65.8165 74.531C66.0785 74.3741 66.3434 74.2222 66.6125 74.0785C66.8816 73.9338 67.1537 73.7962 67.4289 73.6648C67.7051 73.5333 67.9833 73.4089 68.2646 73.2907C68.5459 73.1735 68.8302 73.0624 69.1176 72.9585C69.405 72.8545 69.6945 72.7577 69.9859 72.667C70.2774 72.5773 70.572 72.4937 70.8675 72.4183C71.1631 72.3429 71.4607 72.2736 71.7593 72.2124C72.0589 72.1513 72.3586 72.0973 72.6602 72.0504C72.9619 72.0035 73.2646 71.9638 73.5683 71.9322C73.872 71.8996 74.1767 71.8751 74.4815 71.8578Z" fill="#220E10"/>
<path d="M85.9182 79.9738C82.9721 77.2606 79.2141 75.4544 75.1358 75.6257C71.2278 75.7903 67.3298 77.4073 64.6849 80.321C61.9873 83.294 60.5036 87.1942 60.7477 91.2108C60.7634 91.4639 60.7869 91.7114 60.816 91.9633C61.62 95.9162 63.34 99.7839 66.8741 102.036C66.9603 102.091 67.0487 102.143 67.1361 102.197C67.6333 102.532 68.1327 102.864 68.6646 103.142C72.2098 104.995 76.5311 105.237 80.3182 104.011C84.1769 102.761 87.2194 100.007 89.0368 96.41C89.8251 94.6094 90.2674 92.7315 90.31 90.7641C90.4007 86.5436 88.7949 82.9928 85.9171 79.9738H85.9182Z" fill="#220E10"/>
<path d="M44.9906 47.0152C55.6491 47.1181 66.3401 47.2802 76.9975 47.0967C82.397 47.2333 87.8282 47.0988 93.2318 47.0916L105.469 47.1426C107.871 52.4962 109.446 58.2015 110.757 63.9058C106.892 63.7855 103.009 63.866 99.1399 63.8283L97.0526 63.8416C83.1492 64.0383 69.2213 63.8518 55.3148 63.8558C53.0583 63.8558 41.4297 64.1473 39.9814 63.7376C40.8019 61.048 41.4287 58.2749 42.1991 55.5649C43.0216 52.6736 43.9959 49.8495 44.9906 47.0142V47.0152Z" fill="#220E10"/>
<path d="M51.9777 198.232C57.5566 198.237 63.162 198.124 68.7378 198.257L68.9101 200.036C69.9496 208.558 71.7128 216.218 75.4714 223.989C78.5646 216.41 79.9782 207.96 81.351 199.934L81.615 198.39L97.8197 198.276C98.2416 201.838 98.9846 205.374 99.4585 208.932C101.43 223.756 100.449 240.254 91.03 252.543C91.6619 247.051 91.5528 241.896 90.0536 236.536C89.3178 239.911 88.7308 243.305 87.8889 246.658C87.6535 247.588 87.3997 248.511 87.1286 249.431C86.8565 250.35 86.5671 251.263 86.2593 252.171C85.9515 253.079 85.6254 253.98 85.2819 254.875C84.9385 255.77 84.5777 256.657 84.1996 257.538C83.8215 258.419 83.425 259.291 83.0122 260.156C82.5995 261.022 82.1694 261.878 81.723 262.726C81.2766 263.574 80.8129 264.412 80.3339 265.242C79.8538 266.071 79.3585 266.892 78.8459 267.701C77.6626 269.596 76.514 271.637 75.1147 273.376C73.958 271.888 73.004 270.202 72.0389 268.586C67.9133 261.675 64.2841 254.127 62.1275 246.348C61.2633 243.231 60.821 240.022 60.0851 236.873C58.3862 243.149 58.6012 246.304 59.067 252.584C58.962 252.435 58.8601 252.287 58.7622 252.134C48.7846 236.375 47.9785 215.998 51.9777 198.232Z" fill="#DA6508"/>
<path d="M81.3542 198.177C83.9042 198.551 88.7513 198.289 91.4969 198.31C91.5408 200.927 91.502 203.543 91.3818 206.157C91.285 208.099 91.2615 210.212 90.7275 212.089C89.9825 214.706 88.679 217.3 87.5925 219.799C85.3137 225.04 80.2158 237.449 76.186 240.952C75.7774 241.307 75.0558 241.835 74.4687 241.678C73.2468 241.352 72.0238 239.469 71.3868 238.423C68.7196 234.049 66.9748 229.168 65.4196 224.306C64.7745 222.29 64.2832 220.021 63.3507 218.125C63.3272 218.08 63.3038 218.034 63.2804 217.987C62.7647 218.333 62.2642 218.688 61.8219 219.127C58.5565 222.364 57.1674 227.931 57.095 232.376C56.3541 230.71 56.1054 228.725 55.8272 226.928C55.4664 224.604 55.0944 222.256 54.9283 219.91C54.5237 214.176 54.8233 203.863 56.1401 198.288L68.9123 198.279C69.9518 206.801 71.715 214.461 75.4736 222.233C78.5668 214.653 79.9804 206.203 81.3532 198.177H81.3542Z" fill="#F3CF5D"/>
</g>
<defs>
<filter id="filter0_f_1147_76215" x="18.4582" y="171.641" width="113.118" height="144.151" filterUnits="userSpaceOnUse" color-interpolation-filters="sRGB">
<feFlood flood-opacity="0" result="BackgroundImageFix"/>
<feBlend mode="normal" in="SourceGraphic" in2="BackgroundImageFix" result="shape"/>
<feGaussianBlur stdDeviation="12.3383" result="effect1_foregroundBlur_1147_76215"/>
</filter>
<clipPath id="clip0_1147_76215">
<rect width="150" height="313" fill="white"/>
</clipPath>
</defs>
</svg>
