<svg width="512" height="717" viewBox="0 0 512 717" fill="none" xmlns="http://www.w3.org/2000/svg">
<g clip-path="url(#clip0_1147_76256)">
<path opacity="0.51" fill-rule="evenodd" clip-rule="evenodd" d="M267.184 146.867L313.388 149.409L414.376 713.181L236.556 703.395L58.7192 693.608L220.98 144.324L267.184 146.867Z" fill="url(#paint0_linear_1147_76256)"/>
<g opacity="0.58">
<path opacity="0.51" fill-rule="evenodd" clip-rule="evenodd" d="M270.812 80.9659L332.266 84.348L473.281 713.057L236.741 700.039L0.184731 687.02L209.341 77.5828L270.812 80.9659Z" fill="url(#paint1_linear_1147_76256)"/>
</g>
<path fill-rule="evenodd" clip-rule="evenodd" d="M269.724 100.711C358.844 105.616 430.413 121.503 429.604 136.216C429.178 143.95 408.831 149.797 376.67 152.907L157.679 140.855C126.071 134.236 106.472 126.173 106.897 118.456C107.706 103.759 180.604 95.8066 269.707 100.71L269.724 100.711Z" fill="#1C080E"/>
<path fill-rule="evenodd" clip-rule="evenodd" d="M269.53 110.68C299.041 112.304 324.323 91.7016 325.803 64.808C327.283 37.9144 304.415 14.6618 274.904 13.0377C245.393 11.4136 220.111 32.0162 218.631 58.9098C217.151 85.8035 240.019 109.056 269.53 110.68Z" fill="white" fill-opacity="0.3"/>
<path fill-rule="evenodd" clip-rule="evenodd" d="M325.279 55.6581C358.289 61.5975 380.291 70.6166 379.798 79.5755C379.071 92.7791 329.576 100.808 269.229 97.4869C208.882 94.1657 160.566 80.7705 161.294 67.5502C161.786 58.608 184.663 52.0421 218.108 49.7599L325.263 55.6571L325.279 55.6581Z" fill="#1C080E"/>
<path fill-rule="evenodd" clip-rule="evenodd" d="M267.607 127.283L106.245 118.403C110.689 92.0763 148.101 73.3696 161.295 67.5329L379.8 79.5583C392.274 86.8077 427.423 109.508 428.935 136.162L267.59 127.283L267.607 127.283Z" fill="#1C080E"/>
<g filter="url(#filter0_d_1147_76256)">
<path fill-rule="evenodd" clip-rule="evenodd" d="M190.568 96.1021C190.874 90.5489 187.798 85.6004 183.131 83.2569C182.197 82.7849 181.207 82.4275 180.177 82.1857C179.413 82.009 178.612 81.8808 177.807 81.8365C170.341 81.4256 163.951 87.1488 163.54 94.6146C163.411 96.9634 163.893 99.2112 164.844 101.199C166.913 105.503 171.203 108.583 176.303 108.863C182.493 109.204 187.958 105.315 189.865 99.715C190.247 98.5749 190.499 97.3603 190.569 96.0853L190.568 96.1021Z" fill="#00FFB2"/>
</g>
<g filter="url(#filter1_d_1147_76256)">
<path fill-rule="evenodd" clip-rule="evenodd" d="M226.088 93.1094C225.4 94.6029 224.99 96.2462 224.894 97.9911C224.871 98.4105 224.865 98.8308 224.875 99.2521C225.134 106.166 230.609 111.869 237.655 112.257C242.605 112.529 247.079 110.116 249.647 106.27C250.893 104.42 251.686 102.242 251.883 99.8803C251.89 99.746 251.898 99.6118 251.905 99.4776C251.967 98.3535 251.893 97.2556 251.682 96.1839C250.547 90.2148 245.469 85.5601 239.127 85.2111C234.715 84.9683 230.672 86.8661 228.026 90.0019C227.234 90.9344 226.588 91.9758 226.072 93.0917L226.088 93.1094Z" fill="#00FFB2"/>
</g>
<g filter="url(#filter2_d_1147_76256)">
<path fill-rule="evenodd" clip-rule="evenodd" d="M300.497 88.5885C294.156 88.2395 288.579 92.3247 286.813 98.134C286.504 99.1603 286.309 100.243 286.248 101.351C286.241 101.485 286.234 101.619 286.226 101.753C286.159 104.207 286.77 106.546 287.87 108.575C290.041 112.548 294.161 115.349 299.01 115.616C306.056 116.004 312.124 110.936 313.14 104.093C313.197 103.675 313.236 103.257 313.259 102.837C313.354 101.126 313.125 99.4643 312.621 97.9221C312.29 96.911 311.839 95.927 311.299 95.0391C309.06 91.382 305.111 88.8424 300.497 88.5885Z" fill="#00FFB2"/>
</g>
<g filter="url(#filter3_d_1147_76256)">
<path fill-rule="evenodd" clip-rule="evenodd" d="M355.37 93.2257C351 95.2738 347.867 99.5945 347.584 104.745C347.515 106.003 347.615 107.237 347.886 108.43C349.167 114.205 354.154 118.67 360.362 119.012C365.462 119.292 370.081 116.703 372.609 112.652C373.772 110.78 374.498 108.599 374.628 106.25C375.038 98.7844 369.315 92.3946 361.849 91.9837C361.464 91.9625 361.078 91.9412 360.689 91.9703C358.802 92.0179 356.993 92.4737 355.369 93.2425L355.37 93.2257Z" fill="#00FFB2"/>
</g>
<g filter="url(#filter4_d_1147_76256)">
<path fill-rule="evenodd" clip-rule="evenodd" d="M408.939 108.121C408.528 115.587 414.251 121.977 421.717 122.388C422.891 122.452 424.04 122.364 425.147 122.139C429.009 114.341 417.935 101.818 410.491 102.536C409.591 104.219 409.049 106.108 408.938 108.138L408.939 108.121Z" fill="#00FFB2"/>
</g>
<g filter="url(#filter5_d_1147_76256)">
<path fill-rule="evenodd" clip-rule="evenodd" d="M114.966 105.489C122.432 105.9 128.822 100.177 129.232 92.7109C129.344 90.6809 129.013 88.7443 128.303 86.9719C116.38 85.609 109.245 98.443 111.585 104.849C112.66 105.194 113.792 105.408 114.967 105.472L114.966 105.489Z" fill="#00FFB2"/>
</g>
<path fill-rule="evenodd" clip-rule="evenodd" d="M236.59 33.4615C232.063 39.893 232.564 45.4738 241.294 46.4591C250.024 47.4276 247.781 40.4888 251.814 31.4218C255.847 22.3548 268.982 17.9115 266.086 17.0117C258.078 14.5348 241.118 27.03 236.59 33.4615Z" fill="white" fill-opacity="0.5"/>
<path fill-rule="evenodd" clip-rule="evenodd" d="M173.607 95.4559C176.342 95.6064 178.688 93.6321 178.831 91.0485C178.973 88.4648 176.857 86.2449 174.122 86.0943C171.388 85.9438 169.041 87.9182 168.899 90.5018C168.756 93.0855 170.872 95.3054 173.607 95.4559Z" fill="white"/>
<path fill-rule="evenodd" clip-rule="evenodd" d="M235.198 99.1149C237.933 99.2654 240.28 97.2911 240.422 94.7074C240.564 92.1237 238.448 89.9038 235.714 89.7533C232.979 89.6028 230.632 91.5771 230.49 94.1608C230.348 96.7444 232.464 98.9644 235.198 99.1149Z" fill="white"/>
<path fill-rule="evenodd" clip-rule="evenodd" d="M297.316 101.439C300.05 101.589 302.397 99.6148 302.539 97.0311C302.681 94.4474 300.565 92.2275 297.831 92.077C295.096 91.9265 292.749 93.9008 292.607 96.4845C292.465 99.0682 294.581 101.288 297.316 101.439Z" fill="white"/>
<path fill-rule="evenodd" clip-rule="evenodd" d="M356.398 106.34C359.132 106.491 361.479 104.516 361.621 101.933C361.763 99.3491 359.647 97.1291 356.913 96.9786C354.178 96.8281 351.831 98.8025 351.689 101.386C351.547 103.97 353.663 106.19 356.398 106.34Z" fill="white"/>
<path opacity="0.51" fill-rule="evenodd" clip-rule="evenodd" d="M243.21 145.547L267.185 146.867L291.142 148.185L333.561 708.734L139.551 698.056L243.21 145.547Z" fill="url(#paint2_linear_1147_76256)"/>
<path d="M208.422 505.343C208.917 500.881 209.365 496.405 209.346 491.911C209.33 488.069 208.608 484.258 209.496 480.457C210.305 476.984 212.611 474.232 215.328 472.043C218.041 469.853 221.095 468.321 224.299 467.034C228.083 465.516 231.808 467.076 235.573 467.84C239.894 468.712 244.267 469.268 248.647 469.703C252.057 470.042 255.57 470.084 258.894 470.997C264.716 472.599 270.206 476.798 270.127 483.371C270.126 483.392 270.125 483.409 270.12 483.431C270.421 483.409 270.733 483.443 271.049 483.551C271.099 483.567 271.137 483.59 271.17 483.614C271.348 483.498 271.542 483.401 271.752 483.326C271.888 483.278 272.015 483.302 272.115 483.364C272.77 482.222 273.522 481.119 274.182 479.964C275.05 478.45 275.355 477.051 275.722 475.371C275.899 474.574 276.252 473.769 277.144 473.641C279.834 473.254 279.665 477.966 279.348 479.511C279.279 479.831 279.194 480.141 279.095 480.446C279.752 479.978 280.448 479.567 281.141 479.148C282.011 478.617 282.836 478.447 283.802 478.841C285.204 479.41 286.733 481.031 286.117 482.706C285.652 483.984 283.61 484.588 282.427 484.721C280.872 484.899 279.443 484.975 277.963 485.576C277.331 485.83 276.888 486.393 276.346 486.73C276.975 487.615 277.654 488.472 278.041 489.538C278.72 491.4 278.38 493.514 279.185 495.358C280.038 497.316 281.591 498.887 282.77 500.63C283.659 501.944 283.815 503.247 283.946 504.691C284.138 504.702 287.695 507.768 286.744 511.245C286.212 513.193 284.354 514.972 282.477 515.628C281.518 515.964 278.875 516.807 278.737 516.903C277.699 517.588 276.935 517.826 275.696 517.642C275.083 517.552 270.576 516.549 270.572 516.548C269.617 516.263 268.707 516.031 267.857 515.488C266.356 514.534 264.941 513.118 264.211 511.473C263.841 510.632 263.588 509.699 263.34 508.814C263.013 507.661 262.446 506.589 262.161 505.439C261.698 503.557 261.927 501.429 262.058 499.516C261.292 499.241 260.62 498.656 260.243 497.798C259.699 497.936 259.132 498.017 258.551 498.046C258.439 498.048 258.351 498.013 258.294 497.954C258.2 497.94 258.103 497.918 258.01 497.895C257.949 497.982 257.884 498.069 257.82 498.152C257.797 498.181 257.774 498.202 257.751 498.222C258.117 499.852 257.24 501.672 257.326 503.295C257.33 503.382 257.309 503.445 257.276 503.5C257.405 503.895 257.511 504.307 257.586 504.729C257.932 506.794 257.876 508.832 258.511 510.853C259.187 513.009 260.329 514.949 261.815 516.636C261.929 516.763 261.956 516.976 261.853 517.117C260.472 518.983 258.124 519.303 256.421 518.178C256.559 518.565 256.697 518.944 256.834 519.331C256.949 519.428 256.996 519.59 256.967 519.736C257.01 520.118 256.523 520.38 256.307 520.109C254.618 520.452 252.931 520.377 251.289 519.876C251.288 519.893 250.466 519.071 250.67 518.957C251.186 515.594 249.664 512.683 247.832 509.851C247.52 510.213 247.234 510.668 246.944 510.945C246.043 511.798 245.175 512.363 245.729 513.761C246.185 514.904 247.35 516.738 246.777 518.035C246.688 518.238 246.502 518.344 246.278 518.284C246.087 518.235 245.941 518.166 245.817 518.078C245.887 518.284 245.936 518.49 245.908 518.691C245.879 518.897 245.719 519.082 245.492 519.065C244.775 519.004 244.062 518.848 243.34 518.873C242.617 518.898 241.972 519.169 241.278 519.364C240.738 519.516 239.957 519.831 239.503 519.34C239.321 519.14 239.325 518.911 239.252 518.67C239.062 518.064 238.778 517.608 238.443 517.072C237.878 516.182 237.435 515.04 237.225 514.005C236.824 512.02 238.201 510.007 239.459 508.6C240.3 507.658 241.187 506.757 242.004 505.784C242.652 505.012 243.218 504.172 243.877 503.414C243.64 502.892 243.433 502.362 243.269 501.827C242.906 500.629 242.694 499.422 242.597 498.208C238.848 498.796 235.052 498.755 231.358 498.103C232.917 500.731 232.658 503.953 233.034 506.952C233.285 508.951 233.836 511.014 235.423 512.366C235.911 512.776 236.523 513.121 236.852 513.691C237.197 514.297 237.053 514.803 237.017 515.457C236.969 516.335 237.579 517.102 237.418 517.999C237.301 518.645 236.864 519.173 236.358 519.551C235.207 520.415 233.661 520.516 232.307 520.165C228.753 519.24 227.108 515.753 225.974 512.566C224.215 507.632 222.536 502.667 220.821 497.717C220.656 497.976 220.492 498.234 220.327 498.497C218.713 501.084 217.355 503.767 216.468 506.692C216.432 506.815 216.354 506.893 216.262 506.931C216.095 507.551 216.087 508.25 215.972 508.857C215.774 509.877 215.548 510.857 215.555 511.911C215.564 512.982 215.951 513.529 216.433 514.436C216.659 514.859 216.731 515.333 216.943 515.768C217.148 516.189 217.437 516.542 217.549 517.009C217.828 518.173 216.804 519.001 215.784 519.282C214.315 519.689 213.263 518.461 212.18 517.694C211.385 519.519 208.83 518.605 207.164 518.376C207.126 518.374 207.096 518.363 207.067 518.349C206.782 518.527 208.186 507.539 208.431 505.343L208.422 505.343Z" fill="#1C080E"/>
</g>
<defs>
<filter id="filter0_d_1147_76256" x="143.357" y="61.6527" width="67.3952" height="67.3942" filterUnits="userSpaceOnUse" color-interpolation-filters="sRGB">
<feFlood flood-opacity="0" result="BackgroundImageFix"/>
<feColorMatrix in="SourceAlpha" type="matrix" values="0 0 0 0 0 0 0 0 0 0 0 0 0 0 0 0 0 0 127 0" result="hardAlpha"/>
<feOffset/>
<feGaussianBlur stdDeviation="10.0815"/>
<feComposite in2="hardAlpha" operator="out"/>
<feColorMatrix type="matrix" values="0 0 0 0 1 0 0 0 0 1 0 0 0 0 0.360784 0 0 0 1 0"/>
<feBlend mode="normal" in2="BackgroundImageFix" result="effect1_dropShadow_1147_76256"/>
<feBlend mode="normal" in="SourceGraphic" in2="effect1_dropShadow_1147_76256" result="shape"/>
</filter>
<filter id="filter1_d_1147_76256" x="204.707" y="65.0273" width="67.382" height="67.4133" filterUnits="userSpaceOnUse" color-interpolation-filters="sRGB">
<feFlood flood-opacity="0" result="BackgroundImageFix"/>
<feColorMatrix in="SourceAlpha" type="matrix" values="0 0 0 0 0 0 0 0 0 0 0 0 0 0 0 0 0 0 127 0" result="hardAlpha"/>
<feOffset/>
<feGaussianBlur stdDeviation="10.0815"/>
<feComposite in2="hardAlpha" operator="out"/>
<feColorMatrix type="matrix" values="0 0 0 0 1 0 0 0 0 1 0 0 0 0 0.360784 0 0 0 1 0"/>
<feBlend mode="normal" in2="BackgroundImageFix" result="effect1_dropShadow_1147_76256"/>
<feBlend mode="normal" in="SourceGraphic" in2="effect1_dropShadow_1147_76256" result="shape"/>
</filter>
<filter id="filter2_d_1147_76256" x="266.058" y="68.4047" width="67.3849" height="67.3954" filterUnits="userSpaceOnUse" color-interpolation-filters="sRGB">
<feFlood flood-opacity="0" result="BackgroundImageFix"/>
<feColorMatrix in="SourceAlpha" type="matrix" values="0 0 0 0 0 0 0 0 0 0 0 0 0 0 0 0 0 0 127 0" result="hardAlpha"/>
<feOffset/>
<feGaussianBlur stdDeviation="10.0815"/>
<feComposite in2="hardAlpha" operator="out"/>
<feColorMatrix type="matrix" values="0 0 0 0 1 0 0 0 0 1 0 0 0 0 0.360784 0 0 0 1 0"/>
<feBlend mode="normal" in2="BackgroundImageFix" result="effect1_dropShadow_1147_76256"/>
<feBlend mode="normal" in="SourceGraphic" in2="effect1_dropShadow_1147_76256" result="shape"/>
</filter>
<filter id="filter3_d_1147_76256" x="327.4" y="71.7931" width="67.4118" height="67.402" filterUnits="userSpaceOnUse" color-interpolation-filters="sRGB">
<feFlood flood-opacity="0" result="BackgroundImageFix"/>
<feColorMatrix in="SourceAlpha" type="matrix" values="0 0 0 0 0 0 0 0 0 0 0 0 0 0 0 0 0 0 127 0" result="hardAlpha"/>
<feOffset/>
<feGaussianBlur stdDeviation="10.0815"/>
<feComposite in2="hardAlpha" operator="out"/>
<feColorMatrix type="matrix" values="0 0 0 0 1 0 0 0 0 1 0 0 0 0 0.360784 0 0 0 1 0"/>
<feBlend mode="normal" in2="BackgroundImageFix" result="effect1_dropShadow_1147_76256"/>
<feBlend mode="normal" in="SourceGraphic" in2="effect1_dropShadow_1147_76256" result="shape"/>
</filter>
<filter id="filter4_d_1147_76256" x="388.755" y="82.3432" width="57.3493" height="60.2282" filterUnits="userSpaceOnUse" color-interpolation-filters="sRGB">
<feFlood flood-opacity="0" result="BackgroundImageFix"/>
<feColorMatrix in="SourceAlpha" type="matrix" values="0 0 0 0 0 0 0 0 0 0 0 0 0 0 0 0 0 0 127 0" result="hardAlpha"/>
<feOffset/>
<feGaussianBlur stdDeviation="10.0815"/>
<feComposite in2="hardAlpha" operator="out"/>
<feColorMatrix type="matrix" values="0 0 0 0 1 0 0 0 0 1 0 0 0 0 0.360784 0 0 0 1 0"/>
<feBlend mode="normal" in2="BackgroundImageFix" result="effect1_dropShadow_1147_76256"/>
<feBlend mode="normal" in="SourceGraphic" in2="effect1_dropShadow_1147_76256" result="shape"/>
</filter>
<filter id="filter5_d_1147_76256" x="90.9796" y="66.7084" width="58.4372" height="58.9643" filterUnits="userSpaceOnUse" color-interpolation-filters="sRGB">
<feFlood flood-opacity="0" result="BackgroundImageFix"/>
<feColorMatrix in="SourceAlpha" type="matrix" values="0 0 0 0 0 0 0 0 0 0 0 0 0 0 0 0 0 0 127 0" result="hardAlpha"/>
<feOffset/>
<feGaussianBlur stdDeviation="10.0815"/>
<feComposite in2="hardAlpha" operator="out"/>
<feColorMatrix type="matrix" values="0 0 0 0 1 0 0 0 0 1 0 0 0 0 0.360784 0 0 0 1 0"/>
<feBlend mode="normal" in2="BackgroundImageFix" result="effect1_dropShadow_1147_76256"/>
<feBlend mode="normal" in="SourceGraphic" in2="effect1_dropShadow_1147_76256" result="shape"/>
</filter>
<linearGradient id="paint0_linear_1147_76256" x1="267.176" y1="146.866" x2="256.04" y2="592.81" gradientUnits="userSpaceOnUse">
<stop stop-color="#00FFB2"/>
<stop offset="1" stop-color="#FFF200" stop-opacity="0.1"/>
</linearGradient>
<linearGradient id="paint1_linear_1147_76256" x1="270.803" y1="80.9654" x2="255.977" y2="577.026" gradientUnits="userSpaceOnUse">
<stop stop-color="#00FFB2"/>
<stop offset="1" stop-color="#FFF200" stop-opacity="0.1"/>
</linearGradient>
<linearGradient id="paint2_linear_1147_76256" x1="267.185" y1="146.867" x2="267.185" y2="592.476" gradientUnits="userSpaceOnUse">
<stop stop-color="#00FFB2"/>
<stop offset="1" stop-color="#FFF200" stop-opacity="0.1"/>
</linearGradient>
<clipPath id="clip0_1147_76256">
<rect width="473.812" height="691.42" fill="white" transform="translate(37.9946) rotate(3.15009)"/>
</clipPath>
</defs>
</svg>
